<svg width="44" height="35" fill="none" xmlns="http://www.w3.org/2000/svg"><path fill-rule="evenodd" clip-rule="evenodd" d="M43.406 3.192c-.023-.006-.097-.036-.22-.084C42.142 2.692 37.622.896 32.461.896c-4.858 0-9.076 1.548-10.464 2.135C20.662 2.497 16.39.896 11.532.896 6.422.896 1.91 2.69.862 3.106c-.124.05-.199.08-.221.086C.267 3.405 0 3.779 0 4.206v28.83c0 .374.16.694.48.908.038.013.079.028.122.045.14.053.303.115.466.115a.92.92 0 00.333-.074l.094-.033c.005 0 .053-.018.14-.052.848-.327 5.404-2.083 10.004-2.083 5.019 0 9.93 2.082 9.984 2.135h.053c.054 0 .107 0 .107.054.053 0 .107 0 .107.053h.213c.054 0 .107 0 .107-.053.053 0 .107 0 .107-.054h.053c.005 0 .053-.018.139-.052.834-.328 5.296-2.083 9.845-2.083 4.55 0 9.143 1.755 10.002 2.083.088.034.137.052.142.052l.095.033a.92.92 0 00.332.074c.214 0 .428-.053.588-.16.32-.214.48-.534.48-.908V4.206c.054-.427-.213-.8-.587-1.014zM2.136 31.488V4.9c1.441-.587 5.285-1.869 9.45-1.869 4.164 0 7.901 1.282 9.396 1.869v26.588c-1.975-.694-5.606-1.762-9.343-1.762-3.79 0-7.528 1.068-9.503 1.762zm39.775 0c-1.975-.694-5.713-1.762-9.503-1.762-3.791 0-7.368 1.068-9.344 1.762V4.9c1.495-.587 5.233-1.869 9.397-1.869 4.164 0 7.955 1.282 9.45 1.869v26.588zM5.392 11.093c.16 0 .32-.053.427-.107.007 0 .049-.016.123-.046.56-.224 2.956-1.182 5.644-1.182 2.99 0 5.606 1.175 5.712 1.229.534.266 1.175 0 1.388-.534.267-.534 0-1.175-.534-1.389-.106-.053-3.096-1.388-6.566-1.388-3.47 0-6.514 1.335-6.62 1.388-.535.267-.802.855-.535 1.389.16.427.534.64.961.64zm6.194 2.67c3.31 0 6.46 1.335 6.567 1.388.534.214.747.854.48 1.442-.16.373-.534.64-.96.64a.92.92 0 01-.334-.074l-.094-.033c-.007 0-.053-.017-.135-.049h-.001c-.6-.23-3.089-1.179-5.577-1.179s-5.017.95-5.628 1.179c-.084.031-.131.05-.138.05a1.084 1.084 0 01-1.388-.588 1.083 1.083 0 01.587-1.388 2.89 2.89 0 00.09-.034c.557-.217 3.476-1.354 6.53-1.354zm6.567 7.474c-.107-.053-3.257-1.388-6.567-1.388-3.055 0-5.974 1.137-6.532 1.354l-.089.034c-.534.214-.8.854-.587 1.388.214.534.854.801 1.388.587.007 0 .054-.017.138-.049.611-.23 3.14-1.178 5.628-1.178s4.976.949 5.577 1.178c.083.032.13.05.136.05.033.01.064.022.094.032a.92.92 0 00.333.074c.427 0 .8-.267.961-.64.267-.588.053-1.228-.48-1.442zm8.595-10.25c-.534.266-1.121 0-1.388-.534-.213-.534 0-1.175.534-1.389.107-.053 3.15-1.388 6.62-1.388s6.46 1.335 6.567 1.388c.534.214.801.855.534 1.389-.16.427-.534.64-.96.64a.92.92 0 01-.334-.074l-.094-.033c-.053-.053-2.723-1.228-5.713-1.228-2.637 0-5.067.956-5.64 1.181-.076.03-.12.047-.126.047zm12.333 4.164c-.106-.053-3.256-1.388-6.567-1.388-3.055 0-5.973 1.137-6.53 1.354l-.09.034c-.534.214-.8.854-.587 1.388.213.534.854.801 1.388.587.006 0 .054-.018.138-.049.61-.23 3.14-1.179 5.628-1.179s4.976.95 5.577 1.179c.082.031.13.05.136.05.033.01.064.022.094.032a.92.92 0 00.333.074c.427 0 .8-.267.96-.64.321-.588.054-1.228-.48-1.442zm-6.567 4.698c3.31 0 6.46 1.335 6.567 1.388.534.214.801.854.48 1.442-.16.373-.533.64-.96.64a.92.92 0 01-.333-.073l-.094-.034c-.007 0-.054-.017-.136-.049-.601-.23-3.09-1.178-5.577-1.178-2.488 0-5.017.949-5.628 1.178-.084.032-.132.05-.138.05-.534.213-1.175-.054-1.388-.588a1.083 1.083 0 01.587-1.388l.09-.034c.557-.217 3.475-1.354 6.53-1.354z" fill="url(#paint0_linear)"/><defs><linearGradient id="paint0_linear" x1="5.013" y1="29.48" x2="30.48" y2="-4.264" gradientUnits="userSpaceOnUse"><stop stop-color="#93B209"/><stop offset="1" stop-color="#E6EF37"/></linearGradient></defs></svg>