<svg width="43" height="41" fill="none" xmlns="http://www.w3.org/2000/svg"><path fill-rule="evenodd" clip-rule="evenodd" d="M40.794 8.775l-3.035.78-3.888-1.67-3.925 3.657L31.08 8.13l-2.791-4.254L30.007 0l-4.07 2.864v5.74l2.437 4.316-.292 2.9.304.11-.329 1.463a8.035 8.035 0 00-1.218-1.487c-.41 1.227-.664 2.5-.756 3.79a1.84 1.84 0 001.048 1.816l-1.06 4.754h.682l1.036-4.547a2.9 2.9 0 001-2.303 2.632 2.632 0 00-.171-1.012l.512-2.23.292.122 1.573-1.426 6.094.768 3.473-2.719H43l-2.206-4.144zM29.874 27.79h-1.341l-1.378 3.376 4.156 9.678h1.938l-5.07-9.678 1.694-3.376zM0 40.88h9.507V.037H0v40.842zM1.804 3.851h5.899v20.33h-5.9V3.851zm2.95 27.643a2.975 2.975 0 11-2.975 2.974 2.986 2.986 0 012.974-2.974zM31.895 7.8l-.536 1.524 2.316-2.426 3.961 1.731 3.766-.987-2.4-2.255-4.535-1.23 4.437.328-5.62-4.144.05 5.01-.756-4.315H30.36l-1.195 2.633 2.73 4.131zm.183 10.056a3.473 3.473 0 00-2.437 3.827 5.764 5.764 0 004.558.402c2.803-.78 5.082-1.56 5.082-1.56s-4.338-3.462-7.203-2.67zm-.414 8.434a7.495 7.495 0 00-1.158-3.023 2.437 2.437 0 00-2.328-1.158 2.255 2.255 0 000 2.694c.975 1.462 3.486 1.487 3.486 1.487zm-7.91 1.5h2.925l-.963 3.375 2.889 9.678h-4.851V27.789zm-2.377 13.053h-9.495V0h9.495v40.843zM19.574 3.815h-5.899v20.281h5.9V3.815zm-1.317 28.151a2.975 2.975 0 00-1.657-.496 2.962 2.962 0 00-2.961 2.962 2.974 2.974 0 104.618-2.466z" fill="url(#paint0_linear)"/><defs><linearGradient id="paint0_linear" x1="4.899" y1="35.187" x2="37.457" y2=".94" gradientUnits="userSpaceOnUse"><stop stop-color="#FE4E00"/><stop offset="1" stop-color="#FF914B"/></linearGradient></defs></svg>