<svg width="42" height="39" fill="none" xmlns="http://www.w3.org/2000/svg"><path fill-rule="evenodd" clip-rule="evenodd" d="M39.626 10.273A7.727 7.727 0 0141.72 15.6c0 3.234-1.91 5.993-4.61 7.134v8.37a.944.944 0 01-.931.952h-3.492a.944.944 0 01-.932-.951c0-.523.42-.951.932-.951h2.56v-6.897a8.752 8.752 0 01-1.117.095h-1.77l1.444 1.475a.933.933 0 010 1.331.91.91 0 01-.652.286.91.91 0 01-.652-.285l-3.026-3.092a.933.933 0 010-1.332l3.026-3.091a.887.887 0 011.304 0 .933.933 0 010 1.332l-1.443 1.474h1.769c.373 0 .745 0 1.118-.095V1.902H13.503v2.569a.944.944 0 01-.93.95.944.944 0 01-.932-.95V.95c0-.523.419-.951.931-.951H36.18c.512 0 .931.428.931.951v19.643c1.63-.999 2.747-2.854 2.747-4.994a5.869 5.869 0 00-1.583-4.043.979.979 0 01.047-1.331.93.93 0 011.303.047zM28.45 26.253c0-.523.42-.95.931-.95.513 0 .932.427.932.95V38.05c0 .523-.42.951-.931.951H5.773a.944.944 0 01-.931-.951V15.695c-1.77.951-2.98 2.901-2.98 5.137a5.79 5.79 0 001.63 4.042.979.979 0 01-.047 1.332 1.1 1.1 0 01-.652.238.937.937 0 01-.699-.285A7.727 7.727 0 010 20.832c0-3.282 2.002-6.136 4.843-7.277V7.848c0-.524.419-.952.93-.952h23.608c.513 0 .932.428.932.952v10.416c0 .523-.42.95-.931.95a.944.944 0 01-.932-.95V8.799H6.705v4.28c.28-.047.605-.047.885-.047h1.77l-1.444-1.475a.933.933 0 010-1.331.887.887 0 011.304 0l3.026 3.091a.933.933 0 010 1.332L9.22 17.74a.91.91 0 01-.652.286.91.91 0 01-.652-.286.933.933 0 010-1.331l1.443-1.475H7.59a5.66 5.66 0 00-.884.095v22.069H28.45V26.254zm-10.523-14.41h7.59c.512 0 .931.428.931.951 0 .523-.42.951-.931.951h-7.59a.944.944 0 01-.931-.951c0-.523.419-.951.93-.951zm7.59 3.9h-7.59a.944.944 0 00-.931.95c0 .524.419.952.93.952h7.59a.944.944 0 00.932-.951.944.944 0 00-.931-.951zm-16.111 3.9h16.11c.513 0 .932.428.932.95a.944.944 0 01-.931.952H9.406a.944.944 0 01-.931-.951c0-.523.419-.951.93-.951zm16.11 3.852H9.407a.944.944 0 00-.931.952c0 .523.419.95.93.95h16.112a.944.944 0 00.931-.95.944.944 0 00-.931-.952zm-16.157 3.9h16.158c.512 0 .931.428.931.951a.944.944 0 01-.931.951H9.359a.944.944 0 01-.931-.95c0-.524.42-.952.931-.952zm16.158 3.9H9.359a.944.944 0 00-.931.951c0 .523.42.951.931.951h16.158a.944.944 0 00.931-.95.944.944 0 00-.931-.952z" fill="url(#paint0_linear)"/><defs><linearGradient id="paint0_linear" x1="4.753" y1="33.57" x2="35.784" y2=".374" gradientUnits="userSpaceOnUse"><stop stop-color="#FE4E00"/><stop offset="1" stop-color="#FF914B"/></linearGradient></defs></svg>