<svg width="44" height="35" viewBox="0 0 44 35" fill="none" xmlns="http://www.w3.org/2000/svg">
<path fill-rule="evenodd" clip-rule="evenodd" d="M43.4059 3.19151C43.3835 3.18591 43.3088 3.15621 43.1863 3.10752C42.1415 2.69222 37.6221 0.895752 32.461 0.895752C27.6025 0.895752 23.3847 2.44406 21.9966 3.03134C20.6619 2.49745 16.3907 0.895752 11.5322 0.895752C6.42165 0.895752 1.9093 2.69031 0.861907 3.10686C0.738495 3.15594 0.663189 3.18589 0.640678 3.19151C0.266949 3.40507 0 3.7788 0 4.20592V33.0364C0 33.4101 0.160169 33.7305 0.480508 33.944C0.518273 33.9566 0.559006 33.9722 0.602008 33.9886L0.602158 33.9887L0.602174 33.9887C0.741514 34.0419 0.904655 34.1042 1.0678 34.1042C1.19453 34.1042 1.28784 34.0708 1.40062 34.0304L1.40092 34.0303C1.43058 34.0196 1.46159 34.0085 1.49491 33.9974C1.49988 33.9974 1.54784 33.9789 1.63484 33.9454C2.48275 33.6185 7.0389 31.8618 11.639 31.8618C16.6576 31.8618 21.5695 33.944 21.6229 33.9974H21.6763C21.7296 33.9974 21.783 33.9974 21.783 34.0508C21.8364 34.0508 21.8898 34.0508 21.8898 34.1042H21.9966H22.1034C22.1568 34.1042 22.2102 34.1042 22.2102 34.0508C22.2635 34.0508 22.3169 34.0508 22.3169 33.9974H22.3703C22.3753 33.9974 22.4228 33.9788 22.5088 33.9449C23.3432 33.6167 27.8048 31.8618 32.3542 31.8618C36.9036 31.8618 41.4969 33.6167 42.3558 33.9449C42.4444 33.9788 42.4933 33.9974 42.4983 33.9974C42.5317 34.0086 42.5628 34.0197 42.5926 34.0304C42.7053 34.0708 42.7987 34.1042 42.9254 34.1042C43.139 34.1042 43.3525 34.0508 43.5127 33.944C43.833 33.7305 43.9932 33.4101 43.9932 33.0364V4.20592C44.0466 3.7788 43.7796 3.40507 43.4059 3.19151ZM2.13559 31.4881V4.89999C3.57712 4.3127 7.42118 3.03134 11.5856 3.03134C15.75 3.03134 19.4873 4.3127 20.9822 4.89999V31.4881C19.0068 30.794 15.3763 29.7262 11.639 29.7262C7.8483 29.7262 4.11101 30.794 2.13559 31.4881ZM41.911 31.4881C39.9356 30.794 36.1983 29.7262 32.4076 29.7262C28.6169 29.7262 25.0398 30.794 23.0644 31.4881V4.89999C24.5593 4.3127 28.2966 3.03134 32.461 3.03134C36.6254 3.03134 40.4161 4.3127 41.911 4.89999V31.4881ZM5.39239 11.0932C5.55255 11.0932 5.71272 11.0398 5.8195 10.9865C5.82575 10.9865 5.86778 10.9697 5.94201 10.94C6.50246 10.716 8.89832 9.75849 11.5856 9.75849C14.5754 9.75849 17.1915 10.9331 17.2983 10.9865C17.8322 11.2534 18.4729 10.9865 18.6864 10.4526C18.9534 9.91866 18.6864 9.27798 18.1525 9.06442C18.0458 9.01103 15.0559 7.67628 11.5856 7.67628C8.11527 7.67628 5.07205 9.01103 4.96527 9.06442C4.43137 9.33137 4.16442 9.91866 4.43137 10.4526C4.59154 10.8797 4.96527 11.0932 5.39239 11.0932ZM11.5856 13.7629C14.8958 13.7629 18.0458 15.0976 18.1526 15.151C18.6865 15.3646 18.9 16.0052 18.6331 16.5925C18.4729 16.9663 18.0992 17.2332 17.6721 17.2332C17.5453 17.2332 17.452 17.1998 17.3392 17.1594C17.3095 17.1487 17.2784 17.1376 17.245 17.1264C17.2385 17.1264 17.1918 17.1086 17.1096 17.0773L17.1092 17.0771L17.1092 17.0771L17.1091 17.0771L17.109 17.077C16.5081 16.8477 14.0202 15.8985 11.5322 15.8985C9.04433 15.8985 6.51514 16.8477 5.90423 17.077C5.82032 17.1085 5.7726 17.1264 5.76615 17.1264C5.23225 17.34 4.59157 17.073 4.37801 16.5391C4.16445 16.0052 4.4314 15.3646 4.9653 15.151C4.97765 15.1469 5.00778 15.1352 5.05438 15.117C5.6122 14.8997 8.53071 13.7629 11.5856 13.7629ZM18.1526 21.2371C18.0458 21.1837 14.8958 19.849 11.5856 19.849C8.53072 19.849 5.61222 20.9858 5.05439 21.2031C5.00778 21.2213 4.97765 21.233 4.9653 21.2371C4.4314 21.4507 4.16445 22.0914 4.37801 22.6253C4.59157 23.1592 5.23225 23.4261 5.76615 23.2125C5.7726 23.2125 5.82032 23.1946 5.90423 23.1631C6.51514 22.9339 9.04433 21.9846 11.5322 21.9846C14.0201 21.9846 16.508 22.9338 17.109 23.1631L17.109 23.1631L17.1091 23.1632L17.1092 23.1632L17.1092 23.1632C17.1916 23.1947 17.2385 23.2125 17.245 23.2125C17.2783 23.2237 17.3094 23.2348 17.3391 23.2454L17.3392 23.2455C17.452 23.2859 17.5453 23.3193 17.6721 23.3193C18.0992 23.3193 18.4729 23.0524 18.6331 22.6787C18.9 22.0914 18.6865 21.4507 18.1526 21.2371ZM26.7482 10.9865C26.2143 11.2534 25.627 10.9865 25.3601 10.4526C25.1465 9.91866 25.3601 9.27798 25.894 9.06442C26.0008 9.01103 29.044 7.67628 32.5143 7.67628C35.9847 7.67628 38.9745 9.01103 39.0813 9.06442C39.6152 9.27798 39.8821 9.91866 39.6152 10.4526C39.455 10.8797 39.0813 11.0932 38.6541 11.0932C38.5274 11.0932 38.4341 11.0598 38.3213 11.0194C38.2916 11.0087 38.2605 10.9976 38.227 10.9865C38.1736 10.9331 35.5041 9.75849 32.5143 9.75849C29.8769 9.75849 27.4473 10.714 26.8744 10.9393L26.8744 10.9393C26.7979 10.9694 26.7545 10.9865 26.7482 10.9865ZM39.0814 15.151C38.9746 15.0976 35.8246 13.7629 32.5144 13.7629C29.4595 13.7629 26.541 14.8997 25.9832 15.117C25.9366 15.1352 25.9064 15.1469 25.8941 15.151C25.3602 15.3646 25.0932 16.0052 25.3068 16.5391C25.5204 17.073 26.161 17.34 26.6949 17.1264C26.7014 17.1264 26.7491 17.1085 26.833 17.077L26.833 17.077C27.4439 16.8477 29.9731 15.8985 32.461 15.8985C34.9489 15.8985 37.4369 16.8477 38.0378 17.077C38.1203 17.1085 38.1673 17.1264 38.1737 17.1264C38.2072 17.1376 38.2383 17.1487 38.268 17.1594C38.3808 17.1998 38.4741 17.2332 38.6009 17.2332C39.028 17.2332 39.4017 16.9663 39.5619 16.5925C39.8822 16.0052 39.6153 15.3646 39.0814 15.151ZM32.5144 19.849C35.8246 19.849 38.9746 21.1837 39.0814 21.2371C39.6153 21.4507 39.8822 22.0914 39.5619 22.6787C39.4017 23.0524 39.028 23.3193 38.6009 23.3193C38.4741 23.3193 38.3808 23.2859 38.268 23.2455C38.2383 23.2348 38.2072 23.2237 38.1737 23.2125C38.1673 23.2125 38.1203 23.1946 38.0378 23.1631C37.4369 22.9339 34.9489 21.9846 32.461 21.9846C29.9731 21.9846 27.4439 22.9339 26.833 23.1631C26.7491 23.1946 26.7014 23.2125 26.6949 23.2125C26.161 23.4261 25.5204 23.1592 25.3068 22.6253C25.0932 22.0914 25.3602 21.4507 25.8941 21.2371C25.9064 21.233 25.9366 21.2213 25.9832 21.2031C26.541 20.9858 29.4595 19.849 32.5144 19.849Z" fill="url(#paint0_linear)"/>
<defs>
<linearGradient id="paint0_linear" x1="5.01266" y1="29.4802" x2="30.4804" y2="-4.26364" gradientUnits="userSpaceOnUse">
<stop stop-color="#93B209"/>
<stop offset="1" stop-color="#E6EF37"/>
</linearGradient>
</defs>
</svg>
