<svg width="43" height="41" viewBox="0 0 43 41" fill="none" xmlns="http://www.w3.org/2000/svg">
<path fill-rule="evenodd" clip-rule="evenodd" d="M40.7939 8.7755L37.7591 9.55554L33.871 7.88576L29.9464 11.5422L31.0799 8.12952L28.2888 3.87584L30.0074 0L25.9365 2.86423V8.60486L28.3742 12.9195L28.0816 15.8203L28.3864 15.93L28.0573 17.3926C27.712 16.8499 27.3028 16.3507 26.8385 15.9056C26.4293 17.1326 26.1754 18.406 26.0828 19.6961C26.0519 20.0695 26.1357 20.4435 26.323 20.768C26.5103 21.0925 26.7922 21.3521 27.131 21.5122L26.0706 26.2656H26.7531L27.7891 21.7194C28.1177 21.4348 28.378 21.08 28.551 20.6813C28.724 20.2826 28.8052 19.8501 28.7886 19.4158C28.7986 19.0707 28.7406 18.7269 28.6179 18.4042L29.1298 16.1737L29.4223 16.2956L30.9946 14.8696L37.0887 15.6375L40.5624 12.9195H43L40.7939 8.7755ZM29.8733 27.7891H28.5326L27.1553 31.1652L31.3115 40.8426H33.2494L28.1792 31.1652L29.8733 27.7891ZM0 40.8792H9.50679V0.0365163H0V40.8792ZM1.80385 3.85142H7.70294V24.1813H1.80385V3.85142ZM4.75339 31.4942C5.34158 31.4942 5.91656 31.6687 6.40562 31.9954C6.89467 32.3222 7.27585 32.7867 7.50094 33.3301C7.72603 33.8735 7.78492 34.4715 7.67017 35.0483C7.55542 35.6252 7.27218 36.1551 6.85627 36.571C6.44036 36.9869 5.91046 37.2702 5.33358 37.3849C4.75669 37.4997 4.15874 37.4408 3.61533 37.2157C3.07191 36.9906 2.60745 36.6094 2.28067 36.1204C1.95389 35.6313 1.77948 35.0563 1.77948 34.4682C1.78268 33.6804 2.09704 32.9258 2.65406 32.3688C3.21108 31.8118 3.96565 31.4974 4.75339 31.4942ZM31.8965 7.8004L31.3602 9.32392L33.676 6.89847L37.6371 8.62919L41.4033 7.64195L39.0022 5.38713L34.4682 4.15613L38.9047 4.48521L33.2859 0.341221L33.3347 5.35057L32.579 1.03595H30.3608L29.1663 3.6686L31.8965 7.8004ZM32.0793 17.8557C31.2817 18.0954 30.5967 18.6137 30.1493 19.3162C29.7018 20.0187 29.5217 20.8586 29.6417 21.6827C30.3338 22.0574 31.0953 22.2863 31.8793 22.3555C32.6632 22.4247 33.453 22.3326 34.2001 22.085C37.0033 21.3049 39.2825 20.5249 39.2825 20.5249C39.2825 20.5249 34.9435 17.0634 32.0793 17.8557ZM31.6649 26.2899C31.5037 25.21 31.1085 24.1784 30.507 23.2672C30.2678 22.8742 29.9223 22.5569 29.5103 22.352C29.0984 22.1471 28.6369 22.063 28.1791 22.1093C27.8892 22.4985 27.7327 22.9709 27.7327 23.4561C27.7327 23.9414 27.8892 24.4137 28.1791 24.8029C29.1542 26.2655 31.6649 26.2899 31.6649 26.2899ZM23.7548 27.7891H26.68L25.7171 31.1652L28.6057 40.8426H23.7548V27.7891ZM21.3781 40.8426H11.8835V0H21.3781V40.8426ZM19.5743 3.8149H13.6752V24.0961H19.5743V3.8149ZM18.2572 31.966C17.7662 31.6402 17.1896 31.4675 16.6004 31.4699C15.8149 31.4699 15.0615 31.782 14.5061 32.3374C13.9507 32.8928 13.6386 33.6461 13.6386 34.4316C13.6362 35.0209 13.8089 35.5975 14.1347 36.0884C14.4606 36.5794 14.9249 36.9624 15.4688 37.189C16.0128 37.4156 16.6117 37.4755 17.1897 37.3612C17.7677 37.2468 18.2988 36.9633 18.7154 36.5467C19.132 36.13 19.4155 35.599 19.5299 35.021C19.6443 34.443 19.5843 33.844 19.3577 33.3001C19.1311 32.7562 18.7481 32.2919 18.2572 31.966Z" fill="url(#paint0_linear)"/>
<defs>
<linearGradient id="paint0_linear" x1="4.89873" y1="35.1871" x2="37.4569" y2="0.9398" gradientUnits="userSpaceOnUse">
<stop stop-color="#FE4E00"/>
<stop offset="1" stop-color="#FF914B"/>
</linearGradient>
</defs>
</svg>
