<svg width="42" height="39" viewBox="0 0 42 39" fill="none" xmlns="http://www.w3.org/2000/svg">
<path fill-rule="evenodd" clip-rule="evenodd" d="M39.6255 10.2731C40.9759 11.7 41.7209 13.6024 41.7209 15.6C41.7209 18.8341 39.8118 21.5926 37.1111 22.7341V31.1048C37.1111 31.628 36.692 32.056 36.1798 32.056H32.6876C32.1754 32.056 31.7563 31.628 31.7563 31.1048C31.7563 30.5816 32.1754 30.1536 32.6876 30.1536H35.2486V23.2573C34.8761 23.3048 34.5035 23.3524 34.131 23.3524H32.3616L33.8051 24.8268C34.1776 25.2073 34.1776 25.778 33.8051 26.1585C33.6188 26.3487 33.386 26.4438 33.1532 26.4438C32.9204 26.4438 32.6876 26.3487 32.5013 26.1585L29.4747 23.067C29.1022 22.6865 29.1022 22.1158 29.4747 21.7353L32.5013 18.6439C32.8738 18.2634 33.4326 18.2634 33.8051 18.6439C34.1776 19.0243 34.1776 19.5951 33.8051 19.9756L32.3616 21.4499H34.131C34.5035 21.4499 34.8761 21.4499 35.2486 21.3548V1.90243H13.5034V4.47072C13.5034 4.99389 13.0844 5.42194 12.5722 5.42194C12.06 5.42194 11.6409 4.99389 11.6409 4.47072V0.951217C11.6409 0.428048 12.06 0 12.5722 0H36.1798C36.692 0 37.1111 0.428048 37.1111 0.951217V20.5938C38.7408 19.5951 39.8583 17.7402 39.8583 15.6C39.8583 14.078 39.2996 12.6512 38.2752 11.5573C37.9492 11.1768 37.9492 10.6061 38.3217 10.2256C38.6943 9.89266 39.253 9.89266 39.6255 10.2731ZM28.4502 26.2537C28.4502 25.7305 28.8693 25.3025 29.3815 25.3025C29.8937 25.3025 30.3128 25.7305 30.3128 26.2537V38.0488C30.3128 38.5719 29.8937 39 29.3815 39H5.77386C5.26167 39 4.8426 38.5719 4.8426 38.0488V15.6952C3.07319 16.6464 1.86254 18.5964 1.86254 20.8317C1.86254 22.3061 2.4213 23.7805 3.49226 24.8744C3.8182 25.2549 3.8182 25.8256 3.44569 26.2061C3.25944 26.3488 3.02662 26.4439 2.79381 26.4439C2.51442 26.4439 2.28161 26.3488 2.09535 26.1586C0.745015 24.7317 0 22.8293 0 20.8317C0 17.55 2.00223 14.6964 4.8426 13.5549V7.84763C4.8426 7.32446 5.26167 6.89641 5.77386 6.89641H29.3815C29.8937 6.89641 30.3128 7.32446 30.3128 7.84763V18.2635C30.3128 18.7866 29.8937 19.2147 29.3815 19.2147C28.8693 19.2147 28.4502 18.7866 28.4502 18.2635V8.79885H6.70513V13.0793C6.98451 13.0318 7.31046 13.0318 7.58984 13.0318H9.35925L7.91578 11.5574C7.54327 11.1769 7.54327 10.6062 7.91578 10.2257C8.28829 9.84519 8.84705 9.84519 9.21956 10.2257L12.2462 13.3171C12.6187 13.6976 12.6187 14.2683 12.2462 14.6488L9.21956 17.7403C9.0333 17.9305 8.80049 18.0257 8.56767 18.0257C8.33485 18.0257 8.10203 17.9305 7.91578 17.7403C7.54327 17.3598 7.54327 16.7891 7.91578 16.4086L9.35925 14.9342H7.58984C7.31046 14.9342 6.98451 14.9818 6.70513 15.0293V37.0976H28.4502V26.2537ZM17.9269 11.8428H25.5167C26.0289 11.8428 26.448 12.2709 26.448 12.794C26.448 13.3172 26.0289 13.7452 25.5167 13.7452H17.9269C17.4147 13.7452 16.9956 13.3172 16.9956 12.794C16.9956 12.2709 17.4147 11.8428 17.9269 11.8428ZM25.5167 15.7426H17.9269C17.4147 15.7426 16.9956 16.1707 16.9956 16.6938C16.9956 17.217 17.4147 17.6451 17.9269 17.6451H25.5167C26.0289 17.6451 26.448 17.217 26.448 16.6938C26.448 16.1707 26.0289 15.7426 25.5167 15.7426ZM9.40582 19.6426H25.5168C26.029 19.6426 26.448 20.0706 26.448 20.5938C26.448 21.117 26.029 21.545 25.5168 21.545H9.40582C8.89362 21.545 8.47455 21.117 8.47455 20.5938C8.47455 20.0706 8.89362 19.6426 9.40582 19.6426ZM25.5168 23.4953H9.40582C8.89362 23.4953 8.47455 23.9234 8.47455 24.4466C8.47455 24.9697 8.89362 25.3978 9.40582 25.3978H25.5168C26.029 25.3978 26.448 24.9697 26.448 24.4466C26.448 23.9234 26.029 23.4953 25.5168 23.4953ZM9.35928 27.395H25.5168C26.029 27.395 26.4481 27.8231 26.4481 28.3463C26.4481 28.8694 26.029 29.2975 25.5168 29.2975H9.35928C8.84708 29.2975 8.42801 28.8694 8.42801 28.3463C8.42801 27.8231 8.84708 27.395 9.35928 27.395ZM25.5168 31.2951H9.35928C8.84708 31.2951 8.42801 31.7231 8.42801 32.2463C8.42801 32.7695 8.84708 33.1975 9.35928 33.1975H25.5168C26.029 33.1975 26.4481 32.7695 26.4481 32.2463C26.4481 31.7231 26.029 31.2951 25.5168 31.2951Z" fill="url(#paint0_linear)"/>
<defs>
<linearGradient id="paint0_linear" x1="4.75301" y1="33.5696" x2="35.7837" y2="0.374054" gradientUnits="userSpaceOnUse">
<stop stop-color="#FE4E00"/>
<stop offset="1" stop-color="#FF914B"/>
</linearGradient>
</defs>
</svg>
