<svg width="435" height="312" viewBox="0 0 435 312" fill="none" xmlns="http://www.w3.org/2000/svg">
<path d="M409.837 46.9843C401.742 46.9843 394.545 50.8348 389.959 56.7802C390.397 54.1467 390.657 51.4334 390.657 48.6801C390.657 21.7864 368.884 0 342.007 0C317.662 0 297.504 17.8959 293.915 41.2385C287.774 34.4352 278.921 30.1458 269.032 30.1458C250.489 30.1458 235.435 45.1887 235.435 63.763C235.435 66.9951 235.914 70.1074 236.771 73.0801H299.896H301.272H384.097C384.296 72.721 384.476 72.3618 384.675 72.0027C384.675 72.0626 384.675 72.1224 384.675 72.1823C384.675 72.4815 384.715 72.7808 384.715 73.0601H434.96C434.98 72.7609 435 72.4815 435 72.1823C435 58.2566 423.735 46.9843 409.837 46.9843Z" fill="#EEEFF2"/>
<path d="M113.26 131.908C108.016 131.908 103.352 134.426 100.381 138.313C100.665 136.591 100.833 134.817 100.833 133.017C100.833 115.433 86.7269 101.188 69.3135 101.188C53.5407 101.188 40.4806 112.889 38.1554 128.151C34.1767 123.703 28.4412 120.899 22.0339 120.899C10.0202 120.899 0.267151 130.734 0.267151 142.879C0.267151 144.992 0.577199 147.027 1.13267 148.971H42.0308H42.9221H96.5832C96.7124 148.736 96.8287 148.501 96.9579 148.267C96.9579 148.306 96.9579 148.345 96.9579 148.384C96.9579 148.58 96.9837 148.775 96.9837 148.958H129.537C129.55 148.762 129.563 148.58 129.563 148.384C129.563 139.279 122.264 131.908 113.26 131.908Z" fill="#EEEFF2"/>
<path d="M236.926 126.836H180.157V299.816H236.926V126.836Z" fill="#EBEBEB"/>
<path d="M231.55 154.493H183.529V168.011H231.55V154.493Z" fill="#E0E0E0"/>
<path d="M187.563 156.189H184.872V166.535H187.563V156.189Z" fill="#F5F5F5"/>
<path d="M189.874 159.221C190.346 159.221 190.729 158.839 190.729 158.367C190.729 157.894 190.346 157.512 189.874 157.512C189.402 157.512 189.019 157.894 189.019 158.367C189.019 158.839 189.402 159.221 189.874 159.221Z" fill="#FAFAFA"/>
<path d="M189.874 162.882C190.346 162.882 190.729 162.499 190.729 162.027C190.729 161.555 190.346 161.172 189.874 161.172C189.402 161.172 189.019 161.555 189.019 162.027C189.019 162.499 189.402 162.882 189.874 162.882Z" fill="#FAFAFA"/>
<path d="M196.787 157.512H194.142V165.459H196.787V157.512Z" fill="#F5F5F5"/>
<path d="M200.607 157.512H197.962V165.459H200.607V157.512Z" fill="#F5F5F5"/>
<path d="M204.42 157.512H201.776V165.459H204.42V157.512Z" fill="#F5F5F5"/>
<path d="M208.241 157.512H205.596V165.459H208.241V157.512Z" fill="#F5F5F5"/>
<path d="M212.054 157.512H209.409V165.459H212.054V157.512Z" fill="#F5F5F5"/>
<path d="M215.875 157.512H213.23V165.459H215.875V157.512Z" fill="#F5F5F5"/>
<path d="M219.688 157.512H217.043V165.459H219.688V157.512Z" fill="#F5F5F5"/>
<path d="M223.508 157.512H220.863V165.459H223.508V157.512Z" fill="#F5F5F5"/>
<path d="M227.322 157.512H224.677V165.459H227.322V157.512Z" fill="#F5F5F5"/>
<path d="M231.142 157.512H228.497V165.459H231.142V157.512Z" fill="#F5F5F5"/>
<path d="M231.55 176.146H183.529V189.663H231.55V176.146Z" fill="#E0E0E0"/>
<path d="M187.563 177.848H184.872V188.194H187.563V177.848Z" fill="#F5F5F5"/>
<path d="M189.874 180.881C190.346 180.881 190.729 180.498 190.729 180.026C190.729 179.554 190.346 179.171 189.874 179.171C189.402 179.171 189.019 179.554 189.019 180.026C189.019 180.498 189.402 180.881 189.874 180.881Z" fill="#FAFAFA"/>
<path d="M189.874 184.534C190.346 184.534 190.729 184.151 190.729 183.679C190.729 183.207 190.346 182.824 189.874 182.824C189.402 182.824 189.019 183.207 189.019 183.679C189.019 184.151 189.402 184.534 189.874 184.534Z" fill="#FAFAFA"/>
<path d="M196.787 179.171H194.142V187.119H196.787V179.171Z" fill="#F5F5F5"/>
<path d="M200.607 179.171H197.962V187.119H200.607V179.171Z" fill="#F5F5F5"/>
<path d="M204.42 179.171H201.776V187.119H204.42V179.171Z" fill="#F5F5F5"/>
<path d="M208.241 179.171H205.596V187.119H208.241V179.171Z" fill="#F5F5F5"/>
<path d="M212.054 179.171H209.409V187.119H212.054V179.171Z" fill="#F5F5F5"/>
<path d="M215.875 179.171H213.23V187.119H215.875V179.171Z" fill="#F5F5F5"/>
<path d="M219.688 179.171H217.043V187.119H219.688V179.171Z" fill="#F5F5F5"/>
<path d="M223.508 179.171H220.863V187.119H223.508V179.171Z" fill="#F5F5F5"/>
<path d="M227.322 179.171H224.677V187.119H227.322V179.171Z" fill="#F5F5F5"/>
<path d="M231.142 179.171H228.497V187.119H231.142V179.171Z" fill="#F5F5F5"/>
<path d="M231.55 197.804H183.529V211.322H231.55V197.804Z" fill="#E0E0E0"/>
<path d="M187.563 199.501H184.872V209.846H187.563V199.501Z" fill="#F5F5F5"/>
<path d="M189.874 202.533C190.346 202.533 190.729 202.15 190.729 201.678C190.729 201.206 190.346 200.823 189.874 200.823C189.402 200.823 189.019 201.206 189.019 201.678C189.019 202.15 189.402 202.533 189.874 202.533Z" fill="#FAFAFA"/>
<path d="M190.729 205.331C190.729 205.806 190.348 206.186 189.874 206.186C189.4 206.186 189.019 205.806 189.019 205.331C189.019 204.857 189.4 204.477 189.874 204.477C190.342 204.477 190.729 204.864 190.729 205.331Z" fill="#FAFAFA"/>
<path d="M196.787 200.823H194.142V208.771H196.787V200.823Z" fill="#F5F5F5"/>
<path d="M200.607 200.823H197.962V208.771H200.607V200.823Z" fill="#F5F5F5"/>
<path d="M204.42 200.823H201.776V208.771H204.42V200.823Z" fill="#F5F5F5"/>
<path d="M208.241 200.823H205.596V208.771H208.241V200.823Z" fill="#F5F5F5"/>
<path d="M212.054 200.823H209.409V208.771H212.054V200.823Z" fill="#F5F5F5"/>
<path d="M215.875 200.823H213.23V208.771H215.875V200.823Z" fill="#F5F5F5"/>
<path d="M219.688 200.823H217.043V208.771H219.688V200.823Z" fill="#F5F5F5"/>
<path d="M223.508 200.823H220.863V208.771H223.508V200.823Z" fill="#F5F5F5"/>
<path d="M227.322 200.823H224.677V208.771H227.322V200.823Z" fill="#F5F5F5"/>
<path d="M231.142 200.823H228.497V208.771H231.142V200.823Z" fill="#F5F5F5"/>
<path d="M231.55 219.457H183.529V232.975H231.55V219.457Z" fill="#E0E0E0"/>
<path d="M187.563 221.16H184.872V231.506H187.563V221.16Z" fill="#F5F5F5"/>
<path d="M189.874 224.186C190.346 224.186 190.729 223.803 190.729 223.331C190.729 222.859 190.346 222.476 189.874 222.476C189.402 222.476 189.019 222.859 189.019 223.331C189.019 223.803 189.402 224.186 189.874 224.186Z" fill="#FAFAFA"/>
<path d="M190.729 226.991C190.729 227.465 190.348 227.846 189.874 227.846C189.4 227.846 189.019 227.465 189.019 226.991C189.019 226.516 189.4 226.136 189.874 226.136C190.342 226.136 190.729 226.516 190.729 226.991Z" fill="#FAFAFA"/>
<path d="M196.787 222.476H194.142V230.424H196.787V222.476Z" fill="#F5F5F5"/>
<path d="M200.607 222.476H197.962V230.424H200.607V222.476Z" fill="#F5F5F5"/>
<path d="M204.42 222.476H201.776V230.424H204.42V222.476Z" fill="#F5F5F5"/>
<path d="M208.241 222.476H205.596V230.424H208.241V222.476Z" fill="#F5F5F5"/>
<path d="M212.054 222.476H209.409V230.424H212.054V222.476Z" fill="#F5F5F5"/>
<path d="M215.875 222.476H213.23V230.424H215.875V222.476Z" fill="#F5F5F5"/>
<path d="M219.688 222.476H217.043V230.424H219.688V222.476Z" fill="#F5F5F5"/>
<path d="M223.508 222.476H220.863V230.424H223.508V222.476Z" fill="#F5F5F5"/>
<path d="M227.322 222.476H224.677V230.424H227.322V222.476Z" fill="#F5F5F5"/>
<path d="M231.142 222.476H228.497V230.424H231.142V222.476Z" fill="#F5F5F5"/>
<path d="M231.55 241.109H183.529V254.627H231.55V241.109Z" fill="#E0E0E0"/>
<path d="M187.563 242.812H184.872V253.158H187.563V242.812Z" fill="#F5F5F5"/>
<path d="M189.874 245.844C190.346 245.844 190.729 245.461 190.729 244.989C190.729 244.517 190.346 244.134 189.874 244.134C189.402 244.134 189.019 244.517 189.019 244.989C189.019 245.461 189.402 245.844 189.874 245.844Z" fill="#FAFAFA"/>
<path d="M190.729 248.643C190.729 249.117 190.348 249.498 189.874 249.498C189.4 249.498 189.019 249.117 189.019 248.643C189.019 248.169 189.4 247.788 189.874 247.788C190.342 247.788 190.729 248.169 190.729 248.643Z" fill="#FAFAFA"/>
<path d="M196.787 244.134H194.142V252.082H196.787V244.134Z" fill="#F5F5F5"/>
<path d="M200.607 244.134H197.962V252.082H200.607V244.134Z" fill="#F5F5F5"/>
<path d="M204.42 244.134H201.776V252.082H204.42V244.134Z" fill="#F5F5F5"/>
<path d="M208.241 244.134H205.596V252.082H208.241V244.134Z" fill="#F5F5F5"/>
<path d="M212.054 244.134H209.409V252.082H212.054V244.134Z" fill="#F5F5F5"/>
<path d="M215.875 244.134H213.23V252.082H215.875V244.134Z" fill="#F5F5F5"/>
<path d="M219.688 244.134H217.043V252.082H219.688V244.134Z" fill="#F5F5F5"/>
<path d="M223.508 244.134H220.863V252.082H223.508V244.134Z" fill="#F5F5F5"/>
<path d="M227.322 244.134H224.677V252.082H227.322V244.134Z" fill="#F5F5F5"/>
<path d="M231.142 244.134H228.497V252.082H231.142V244.134Z" fill="#F5F5F5"/>
<path d="M231.55 262.769H183.529V276.286H231.55V262.769Z" fill="#E0E0E0"/>
<path d="M187.563 264.465H184.872V274.811H187.563V264.465Z" fill="#F5F5F5"/>
<path d="M189.874 267.497C190.346 267.497 190.729 267.115 190.729 266.642C190.729 266.17 190.346 265.788 189.874 265.788C189.402 265.788 189.019 266.17 189.019 266.642C189.019 267.115 189.402 267.497 189.874 267.497Z" fill="#FAFAFA"/>
<path d="M190.729 270.303C190.729 270.777 190.348 271.158 189.874 271.158C189.4 271.158 189.019 270.777 189.019 270.303C189.019 269.828 189.4 269.448 189.874 269.448C190.342 269.448 190.729 269.828 190.729 270.303Z" fill="#FAFAFA"/>
<path d="M196.787 265.788H194.142V273.735H196.787V265.788Z" fill="#F5F5F5"/>
<path d="M200.607 265.788H197.962V273.735H200.607V265.788Z" fill="#F5F5F5"/>
<path d="M204.42 265.788H201.776V273.735H204.42V265.788Z" fill="#F5F5F5"/>
<path d="M208.241 265.788H205.596V273.735H208.241V265.788Z" fill="#F5F5F5"/>
<path d="M212.054 265.788H209.409V273.735H212.054V265.788Z" fill="#F5F5F5"/>
<path d="M215.875 265.788H213.23V273.735H215.875V265.788Z" fill="#F5F5F5"/>
<path d="M219.688 265.788H217.043V273.735H219.688V265.788Z" fill="#F5F5F5"/>
<path d="M223.508 265.788H220.863V273.735H223.508V265.788Z" fill="#F5F5F5"/>
<path d="M227.322 265.788H224.677V273.735H227.322V265.788Z" fill="#F5F5F5"/>
<path d="M231.142 265.788H228.497V273.735H231.142V265.788Z" fill="#F5F5F5"/>
<path d="M231.55 284.421H183.529V297.939H231.55V284.421Z" fill="#E0E0E0"/>
<path d="M187.563 286.124H184.872V296.469H187.563V286.124Z" fill="#F5F5F5"/>
<path d="M189.874 289.15C190.346 289.15 190.729 288.767 190.729 288.295C190.729 287.823 190.346 287.44 189.874 287.44C189.402 287.44 189.019 287.823 189.019 288.295C189.019 288.767 189.402 289.15 189.874 289.15Z" fill="#FAFAFA"/>
<path d="M190.729 291.955C190.729 292.429 190.348 292.81 189.874 292.81C189.4 292.81 189.019 292.429 189.019 291.955C189.019 291.481 189.4 291.1 189.874 291.1C190.342 291.1 190.729 291.481 190.729 291.955Z" fill="#FAFAFA"/>
<path d="M196.787 287.447H194.142V295.395H196.787V287.447Z" fill="#F5F5F5"/>
<path d="M200.607 287.447H197.962V295.395H200.607V287.447Z" fill="#F5F5F5"/>
<path d="M204.42 287.447H201.776V295.395H204.42V287.447Z" fill="#F5F5F5"/>
<path d="M208.241 287.447H205.596V295.395H208.241V287.447Z" fill="#F5F5F5"/>
<path d="M212.054 287.447H209.409V295.395H212.054V287.447Z" fill="#F5F5F5"/>
<path d="M215.875 287.447H213.23V295.395H215.875V287.447Z" fill="#F5F5F5"/>
<path d="M219.688 287.447H217.043V295.395H219.688V287.447Z" fill="#F5F5F5"/>
<path d="M223.508 287.447H220.863V295.395H223.508V287.447Z" fill="#F5F5F5"/>
<path d="M227.322 287.447H224.677V295.395H227.322V287.447Z" fill="#F5F5F5"/>
<path d="M231.142 287.447H228.497V295.395H231.142V287.447Z" fill="#F5F5F5"/>
<path d="M213.23 154.493C213.216 154.493 213.196 154.352 213.176 154.078C213.156 153.805 213.136 153.397 213.123 152.876C213.11 152.355 213.096 151.714 213.063 150.979C213.016 150.245 212.969 149.397 212.729 148.515C212.475 147.633 212.074 146.692 211.447 145.817C210.825 144.942 209.944 144.16 208.822 143.706C207.706 143.246 206.424 143.072 205.095 142.952C203.759 142.838 202.377 142.718 200.961 142.591C195.291 142.097 190.155 141.783 186.428 141.709C184.565 141.669 183.055 141.676 182.013 141.683C181.519 141.689 181.125 141.689 180.811 141.689C180.537 141.689 180.39 141.683 180.39 141.669C180.39 141.656 180.531 141.643 180.804 141.616C181.118 141.596 181.512 141.569 182.007 141.542C183.049 141.496 184.558 141.449 186.428 141.462C190.161 141.469 195.317 141.749 200.988 142.244C202.404 142.371 203.786 142.491 205.128 142.611C206.464 142.738 207.78 142.918 208.949 143.412C210.124 143.893 211.053 144.735 211.687 145.65C212.328 146.565 212.722 147.54 212.969 148.448C213.203 149.377 213.23 150.225 213.257 150.966C213.277 151.707 213.263 152.349 213.257 152.87C213.25 153.364 213.243 153.758 213.243 154.072C213.243 154.346 213.243 154.493 213.23 154.493Z" fill="#E0E0E0"/>
<path d="M198.663 154.493C198.65 154.493 198.643 154.359 198.63 154.099C198.623 153.805 198.623 153.431 198.617 152.97C198.61 152.482 198.61 151.881 198.557 151.193C198.49 150.512 198.383 149.711 197.962 148.969C197.548 148.235 196.727 147.68 195.798 147.306C194.863 146.939 193.755 146.792 192.646 146.986C192.092 147.079 191.531 147.26 191.016 147.54C190.509 147.821 190.034 148.215 189.754 148.736C189.467 149.25 189.453 149.884 189.761 150.412C190.055 150.933 190.589 151.347 191.19 151.487C191.791 151.634 192.419 151.427 192.86 151.006C193.3 150.592 193.568 150.005 193.608 149.417C193.668 148.822 193.447 148.268 193.107 147.787C192.773 147.313 192.332 146.926 191.844 146.672C191.364 146.398 190.809 146.358 190.262 146.265C189.721 146.184 189.193 146.111 188.685 146.057C187.664 145.944 186.708 145.877 185.834 145.837C184.084 145.77 182.668 145.79 181.686 145.79C181.225 145.79 180.851 145.784 180.557 145.784C180.29 145.77 180.157 145.764 180.157 145.75C180.157 145.737 180.29 145.724 180.551 145.704C180.845 145.69 181.219 145.67 181.679 145.643C182.661 145.603 184.077 145.543 185.84 145.577C186.722 145.597 187.684 145.65 188.712 145.757C189.226 145.81 189.761 145.877 190.302 145.951C190.575 145.991 190.849 146.031 191.136 146.078C191.43 146.131 191.718 146.238 191.985 146.371C192.526 146.645 193.007 147.066 193.374 147.58C193.741 148.081 194.008 148.749 193.942 149.424C193.895 150.091 193.594 150.753 193.087 151.24C192.592 151.728 191.818 151.988 191.103 151.808C190.395 151.641 189.794 151.173 189.453 150.566C189.093 149.951 189.106 149.15 189.453 148.562C189.781 147.961 190.308 147.54 190.856 147.24C191.41 146.939 192.005 146.759 192.592 146.659C193.768 146.465 194.93 146.632 195.905 147.026C196.867 147.427 197.728 148.021 198.176 148.836C198.61 149.644 198.697 150.472 198.75 151.167C198.784 151.868 198.77 152.469 198.75 152.963C198.73 153.424 198.717 153.798 198.704 154.092C198.683 154.359 198.67 154.493 198.663 154.493Z" fill="#E0E0E0"/>
<path d="M217.15 154.493C217.137 154.493 217.104 154.339 217.05 154.045C216.997 153.752 216.917 153.317 216.796 152.763C216.549 151.654 216.168 150.051 215.374 148.188C214.592 146.338 213.337 144.194 211.199 142.585C210.158 141.77 208.808 141.322 207.379 141.129C205.95 140.922 204.427 140.928 202.878 140.888C196.673 140.768 191.05 140.795 186.976 140.634C184.939 140.561 183.296 140.467 182.16 140.381C181.619 140.334 181.185 140.294 180.851 140.267C180.551 140.24 180.397 140.214 180.397 140.2C180.397 140.194 180.557 140.194 180.851 140.2C181.185 140.214 181.619 140.227 182.16 140.247C183.296 140.287 184.939 140.347 186.976 140.387C191.043 140.488 196.66 140.427 202.878 140.541C204.427 140.588 205.95 140.574 207.419 140.795C208.875 140.995 210.305 141.469 211.386 142.331C212.462 143.172 213.363 144.121 214.031 145.129C214.713 146.131 215.207 147.146 215.594 148.088C216.369 149.985 216.716 151.614 216.917 152.736C217.017 153.297 217.077 153.738 217.11 154.032C217.15 154.333 217.157 154.493 217.15 154.493Z" fill="#E0E0E0"/>
<path d="M230.888 128.893H184.191V135.672H230.888V128.893Z" fill="#E0E0E0"/>
<path d="M219.888 132.286H194.462V135.679H219.888V132.286Z" fill="#F5F5F5"/>
<path d="M301.449 99.314H236.926V296.972H301.449V99.314Z" fill="#D0D0D0"/>
<path d="M295.232 130.951H240.499V146.359H295.232V130.951Z" fill="#263238"/>
<path d="M245.094 132.888H242.029V144.683H245.094V132.888Z" fill="#455A64"/>
<path d="M248.701 135.366C248.701 135.907 248.267 136.341 247.726 136.341C247.185 136.341 246.751 135.907 246.751 135.366C246.751 134.825 247.185 134.391 247.726 134.391C248.267 134.391 248.701 134.825 248.701 135.366Z" fill="white"/>
<path d="M248.701 139.533C248.701 140.074 248.267 140.508 247.726 140.508C247.185 140.508 246.751 140.074 246.751 139.533C246.751 138.992 247.185 138.558 247.726 138.558C248.267 138.558 248.701 138.992 248.701 139.533Z" fill="white"/>
<path d="M255.607 134.391H252.594V143.447H255.607V134.391Z" fill="#455A64"/>
<path d="M259.961 134.391H256.949V143.447H259.961V134.391Z" fill="#455A64"/>
<path d="M264.309 134.391H261.297V143.447H264.309V134.391Z" fill="#455A64"/>
<path d="M268.657 134.391H265.645V143.447H268.657V134.391Z" fill="#455A64"/>
<path d="M273.011 134.391H269.999V143.447H273.011V134.391Z" fill="#455A64"/>
<path d="M277.359 134.391H274.347V143.447H277.359V134.391Z" fill="#455A64"/>
<path d="M281.714 134.391H278.702V143.447H281.714V134.391Z" fill="#455A64"/>
<path d="M286.062 134.391H283.05V143.447H286.062V134.391Z" fill="#455A64"/>
<path d="M290.41 134.391H287.397V143.447H290.41V134.391Z" fill="#455A64"/>
<path d="M294.764 134.391H291.752V143.447H294.764V134.391Z" fill="#455A64"/>
<path d="M295.232 153.084H240.499V168.492H295.232V153.084Z" fill="#263238"/>
<path d="M245.094 155.021H242.029V166.816H245.094V155.021Z" fill="#455A64"/>
<path d="M248.701 157.506C248.701 158.047 248.267 158.481 247.726 158.481C247.185 158.481 246.751 158.047 246.751 157.506C246.751 156.965 247.185 156.531 247.726 156.531C248.267 156.531 248.701 156.965 248.701 157.506Z" fill="white"/>
<path d="M248.701 161.673C248.701 162.214 248.267 162.648 247.726 162.648C247.185 162.648 246.751 162.214 246.751 161.673C246.751 161.132 247.185 160.698 247.726 160.698C248.267 160.698 248.701 161.132 248.701 161.673Z" fill="white"/>
<path d="M255.607 156.531H252.594V165.587H255.607V156.531Z" fill="#455A64"/>
<path d="M259.961 156.531H256.949V165.587H259.961V156.531Z" fill="#455A64"/>
<path d="M264.309 156.531H261.297V165.587H264.309V156.531Z" fill="#455A64"/>
<path d="M268.657 156.531H265.645V165.587H268.657V156.531Z" fill="#455A64"/>
<path d="M273.011 156.531H269.999V165.587H273.011V156.531Z" fill="#455A64"/>
<path d="M277.359 156.531H274.347V165.587H277.359V156.531Z" fill="#455A64"/>
<path d="M281.714 156.531H278.702V165.587H281.714V156.531Z" fill="#455A64"/>
<path d="M286.062 156.531H283.05V165.587H286.062V156.531Z" fill="#455A64"/>
<path d="M290.41 156.531H287.397V165.587H290.41V156.531Z" fill="#455A64"/>
<path d="M294.764 156.531H291.752V165.587H294.764V156.531Z" fill="#455A64"/>
<path d="M295.232 175.398H240.499V190.806H295.232V175.398Z" fill="#263238"/>
<path d="M245.094 177.335H242.029V189.13H245.094V177.335Z" fill="#455A64"/>
<path d="M248.701 179.819C248.701 180.36 248.267 180.794 247.726 180.794C247.185 180.794 246.751 180.36 246.751 179.819C246.751 179.278 247.185 178.844 247.726 178.844C248.267 178.844 248.701 179.278 248.701 179.819Z" fill="white"/>
<path d="M248.701 183.987C248.701 184.528 248.267 184.962 247.726 184.962C247.185 184.962 246.751 184.528 246.751 183.987C246.751 183.446 247.185 183.012 247.726 183.012C248.267 183.012 248.701 183.446 248.701 183.987Z" fill="white"/>
<path d="M255.607 178.844H252.594V187.901H255.607V178.844Z" fill="#455A64"/>
<path d="M259.961 178.844H256.949V187.901H259.961V178.844Z" fill="#455A64"/>
<path d="M264.309 178.844H261.297V187.901H264.309V178.844Z" fill="#455A64"/>
<path d="M268.657 178.844H265.645V187.901H268.657V178.844Z" fill="#455A64"/>
<path d="M273.011 178.844H269.999V187.901H273.011V178.844Z" fill="#455A64"/>
<path d="M277.359 178.844H274.347V187.901H277.359V178.844Z" fill="#455A64"/>
<path d="M281.714 178.844H278.702V187.901H281.714V178.844Z" fill="#455A64"/>
<path d="M286.062 178.844H283.05V187.901H286.062V178.844Z" fill="#455A64"/>
<path d="M290.41 178.844H287.397V187.901H290.41V178.844Z" fill="#455A64"/>
<path d="M294.764 178.844H291.752V187.901H294.764V178.844Z" fill="#455A64"/>
<path d="M295.232 198.828H240.499V214.236H295.232V198.828Z" fill="#263238"/>
<path d="M245.094 200.764H242.029V212.559H245.094V200.764Z" fill="#455A64"/>
<path d="M248.701 203.249C248.701 203.79 248.267 204.224 247.726 204.224C247.185 204.224 246.751 203.79 246.751 203.249C246.751 202.708 247.185 202.273 247.726 202.273C248.267 202.273 248.701 202.708 248.701 203.249Z" fill="white"/>
<path d="M248.701 207.416C248.701 207.957 248.267 208.391 247.726 208.391C247.185 208.391 246.751 207.957 246.751 207.416C246.751 206.875 247.185 206.441 247.726 206.441C248.267 206.441 248.701 206.875 248.701 207.416Z" fill="white"/>
<path d="M255.607 202.273H252.594V211.33H255.607V202.273Z" fill="#455A64"/>
<path d="M259.961 202.273H256.949V211.33H259.961V202.273Z" fill="#455A64"/>
<path d="M264.309 202.273H261.297V211.33H264.309V202.273Z" fill="#455A64"/>
<path d="M268.657 202.273H265.645V211.33H268.657V202.273Z" fill="#455A64"/>
<path d="M273.011 202.273H269.999V211.33H273.011V202.273Z" fill="#455A64"/>
<path d="M277.359 202.273H274.347V211.33H277.359V202.273Z" fill="#455A64"/>
<path d="M281.714 202.273H278.702V211.33H281.714V202.273Z" fill="#455A64"/>
<path d="M286.062 202.273H283.05V211.33H286.062V202.273Z" fill="#455A64"/>
<path d="M290.41 202.273H287.397V211.33H290.41V202.273Z" fill="#455A64"/>
<path d="M294.764 202.273H291.752V211.33H294.764V202.273Z" fill="#455A64"/>
<path d="M295.232 223.846H240.499V239.254H295.232V223.846Z" fill="#263238"/>
<path d="M245.094 225.783H242.029V237.578H245.094V225.783Z" fill="#455A64"/>
<path d="M248.701 228.268C248.701 228.809 248.267 229.243 247.726 229.243C247.185 229.243 246.751 228.809 246.751 228.268C246.751 227.727 247.185 227.292 247.726 227.292C248.267 227.292 248.701 227.727 248.701 228.268Z" fill="white"/>
<path d="M248.701 232.435C248.701 232.976 248.267 233.41 247.726 233.41C247.185 233.41 246.751 232.976 246.751 232.435C246.751 231.894 247.185 231.46 247.726 231.46C248.267 231.46 248.701 231.894 248.701 232.435Z" fill="white"/>
<path d="M255.607 227.292H252.594V236.349H255.607V227.292Z" fill="#455A64"/>
<path d="M259.961 227.292H256.949V236.349H259.961V227.292Z" fill="#455A64"/>
<path d="M264.309 227.292H261.297V236.349H264.309V227.292Z" fill="#455A64"/>
<path d="M268.657 227.292H265.645V236.349H268.657V227.292Z" fill="#455A64"/>
<path d="M273.011 227.292H269.999V236.349H273.011V227.292Z" fill="#455A64"/>
<path d="M277.359 227.292H274.347V236.349H277.359V227.292Z" fill="#455A64"/>
<path d="M281.714 227.292H278.702V236.349H281.714V227.292Z" fill="#455A64"/>
<path d="M286.062 227.292H283.05V236.349H286.062V227.292Z" fill="#455A64"/>
<path d="M290.41 227.292H287.397V236.349H290.41V227.292Z" fill="#455A64"/>
<path d="M294.764 227.292H291.752V236.349H294.764V227.292Z" fill="#455A64"/>
<path d="M295.232 272.3H240.499V287.708H295.232V272.3Z" fill="#263238"/>
<path d="M245.094 274.237H242.029V286.031H245.094V274.237Z" fill="#455A64"/>
<path d="M248.701 276.715C248.701 277.256 248.267 277.69 247.726 277.69C247.185 277.69 246.751 277.256 246.751 276.715C246.751 276.174 247.185 275.74 247.726 275.74C248.267 275.74 248.701 276.174 248.701 276.715Z" fill="white"/>
<path d="M248.701 280.882C248.701 281.423 248.267 281.857 247.726 281.857C247.185 281.857 246.751 281.423 246.751 280.882C246.751 280.341 247.185 279.907 247.726 279.907C248.267 279.907 248.701 280.341 248.701 280.882Z" fill="white"/>
<path d="M255.607 275.74H252.594V284.796H255.607V275.74Z" fill="#455A64"/>
<path d="M259.961 275.74H256.949V284.796H259.961V275.74Z" fill="#455A64"/>
<path d="M264.309 275.74H261.297V284.796H264.309V275.74Z" fill="#455A64"/>
<path d="M268.657 275.74H265.645V284.796H268.657V275.74Z" fill="#455A64"/>
<path d="M273.011 275.74H269.999V284.796H273.011V275.74Z" fill="#455A64"/>
<path d="M277.359 275.74H274.347V284.796H277.359V275.74Z" fill="#455A64"/>
<path d="M281.714 275.74H278.702V284.796H281.714V275.74Z" fill="#455A64"/>
<path d="M286.062 275.74H283.05V284.796H286.062V275.74Z" fill="#455A64"/>
<path d="M290.41 275.74H287.397V284.796H290.41V275.74Z" fill="#455A64"/>
<path d="M294.764 275.74H291.752V284.796H294.764V275.74Z" fill="#455A64"/>
<path d="M295.232 248.097H240.499V263.505H295.232V248.097Z" fill="#263238"/>
<path d="M245.094 250.033H242.029V261.828H245.094V250.033Z" fill="#455A64"/>
<path d="M248.701 252.511C248.701 253.052 248.267 253.486 247.726 253.486C247.185 253.486 246.751 253.052 246.751 252.511C246.751 251.97 247.185 251.536 247.726 251.536C248.267 251.536 248.701 251.977 248.701 252.511Z" fill="white"/>
<path d="M248.701 256.679C248.701 257.22 248.267 257.654 247.726 257.654C247.185 257.654 246.751 257.22 246.751 256.679C246.751 256.138 247.185 255.704 247.726 255.704C248.267 255.704 248.701 256.138 248.701 256.679Z" fill="white"/>
<path d="M255.607 251.536H252.594V260.593H255.607V251.536Z" fill="#455A64"/>
<path d="M259.961 251.536H256.949V260.593H259.961V251.536Z" fill="#455A64"/>
<path d="M264.309 251.536H261.297V260.593H264.309V251.536Z" fill="#455A64"/>
<path d="M268.657 251.536H265.645V260.593H268.657V251.536Z" fill="#455A64"/>
<path d="M273.011 251.536H269.999V260.593H273.011V251.536Z" fill="#455A64"/>
<path d="M277.359 251.536H274.347V260.593H277.359V251.536Z" fill="#455A64"/>
<path d="M281.714 251.536H278.702V260.593H281.714V251.536Z" fill="#455A64"/>
<path d="M286.062 251.536H283.05V260.593H286.062V251.536Z" fill="#455A64"/>
<path d="M290.41 251.536H287.397V260.593H290.41V251.536Z" fill="#455A64"/>
<path d="M294.764 251.536H291.752V260.593H294.764V251.536Z" fill="#455A64"/>
<path d="M294.484 106.447H241.254V114.175H294.484V106.447Z" fill="#263238"/>
<path d="M281.941 110.313H252.962V114.174H281.941V110.313Z" fill="#455A64"/>
<path d="M381.187 144.869H279.002V299.816H381.187V144.869Z" fill="#E0E0E0"/>
<path d="M389.045 151.142H272.991V181.023H389.045V151.142Z" fill="#EBEBEB"/>
<path d="M348.331 161.435C349.291 161.435 350.069 160.658 350.069 159.7C350.069 158.742 349.291 157.965 348.331 157.965C347.372 157.965 346.594 158.742 346.594 159.7C346.594 160.658 347.372 161.435 348.331 161.435Z" fill="#178A00"/>
<path d="M348.331 167.957C349.291 167.957 350.069 167.181 350.069 166.223C350.069 165.265 349.291 164.488 348.331 164.488C347.372 164.488 346.594 165.265 346.594 166.223C346.594 167.181 347.372 167.957 348.331 167.957Z" fill="#FFF94D"/>
<path d="M348.331 174.48C349.291 174.48 350.069 173.704 350.069 172.746C350.069 171.788 349.291 171.011 348.331 171.011C347.372 171.011 346.594 171.788 346.594 172.746C346.594 173.704 347.372 174.48 348.331 174.48Z" fill="#FF6600"/>
<path d="M358.389 158.884H356.929V173.555H358.389V158.884Z" fill="#4D4D4D"/>
<path d="M362.769 158.884H361.309V173.555H362.769V158.884Z" fill="#4D4D4D"/>
<path d="M367.148 158.884H365.688V173.555H367.148V158.884Z" fill="#4D4D4D"/>
<path d="M371.527 158.884H370.068V173.555H371.527V158.884Z" fill="#4D4D4D"/>
<path d="M375.907 158.884H374.447V173.555H375.907V158.884Z" fill="#4D4D4D"/>
<path d="M380.286 158.884H378.826V173.555H380.286V158.884Z" fill="#4D4D4D"/>
<path d="M384.665 158.884H383.206V173.555H384.665V158.884Z" fill="#4D4D4D"/>
<path d="M389.045 218.892H272.991V248.774H389.045V218.892Z" fill="#EBEBEB"/>
<path d="M335.519 226.42H286.792V240.117H335.519V226.42Z" fill="#263238"/>
<path d="M290.877 228.142H288.148V238.627H290.877V228.142Z" fill="url(#paint0_linear)"/>
<path d="M294.094 230.344C294.094 230.825 293.708 231.211 293.226 231.211C292.744 231.211 292.358 230.825 292.358 230.344C292.358 229.863 292.744 229.478 293.226 229.478C293.708 229.478 294.094 229.869 294.094 230.344Z" fill="white"/>
<path d="M294.094 234.049C294.094 234.53 293.708 234.916 293.226 234.916C292.744 234.916 292.358 234.53 292.358 234.049C292.358 233.569 292.744 233.183 293.226 233.183C293.708 233.183 294.094 233.574 294.094 234.049Z" fill="white"/>
<path d="M300.242 229.478H297.561V237.529H300.242V229.478Z" fill="#455A64"/>
<path d="M304.113 229.478H301.431V237.529H304.113V229.478Z" fill="#455A64"/>
<path d="M307.99 229.478H305.308V237.529H307.99V229.478Z" fill="#455A64"/>
<path d="M311.861 229.478H309.179V237.529H311.861V229.478Z" fill="#455A64"/>
<path d="M315.737 229.478H313.056V237.529H315.737V229.478Z" fill="#455A64"/>
<path d="M319.608 229.478H316.926V237.529H319.608V229.478Z" fill="#455A64"/>
<path d="M323.479 229.478H320.797V237.529H323.479V229.478Z" fill="#455A64"/>
<path d="M327.356 229.478H324.674V237.529H327.356V229.478Z" fill="#455A64"/>
<path d="M331.226 229.478H328.545V237.529H331.226V229.478Z" fill="#455A64"/>
<path d="M335.103 229.478H332.422V237.529H335.103V229.478Z" fill="#455A64"/>
<path d="M348.331 229.185C349.291 229.185 350.069 228.408 350.069 227.45C350.069 226.492 349.291 225.715 348.331 225.715C347.372 225.715 346.594 226.492 346.594 227.45C346.594 228.408 347.372 229.185 348.331 229.185Z" fill="#178A00"/>
<path d="M348.331 235.707C349.291 235.707 350.069 234.931 350.069 233.973C350.069 233.015 349.291 232.238 348.331 232.238C347.372 232.238 346.594 233.015 346.594 233.973C346.594 234.931 347.372 235.707 348.331 235.707Z" fill="#FFF94D"/>
<path d="M348.331 242.23C349.291 242.23 350.069 241.454 350.069 240.496C350.069 239.538 349.291 238.761 348.331 238.761C347.372 238.761 346.594 239.538 346.594 240.496C346.594 241.454 347.372 242.23 348.331 242.23Z" fill="#FF6600"/>
<path d="M358.389 226.634H356.929V241.305H358.389V226.634Z" fill="#4D4D4D"/>
<path d="M362.769 226.634H361.309V241.305H362.769V226.634Z" fill="#4D4D4D"/>
<path d="M367.148 226.634H365.688V241.305H367.148V226.634Z" fill="#4D4D4D"/>
<path d="M371.527 226.634H370.068V241.305H371.527V226.634Z" fill="#4D4D4D"/>
<path d="M375.907 226.634H374.447V241.305H375.907V226.634Z" fill="#4D4D4D"/>
<path d="M380.286 226.634H378.826V241.305H380.286V226.634Z" fill="#4D4D4D"/>
<path d="M384.665 226.634H383.206V241.305H384.665V226.634Z" fill="#4D4D4D"/>
<path d="M389.045 252.767H272.991V282.649H389.045V252.767Z" fill="#EBEBEB"/>
<path d="M335.519 261.55H286.792V275.247H335.519V261.55Z" fill="#263238"/>
<path d="M290.877 263.271H288.148V273.757H290.877V263.271Z" fill="url(#paint1_linear)"/>
<path d="M294.094 265.474C294.094 265.955 293.708 266.341 293.226 266.341C292.744 266.341 292.358 265.955 292.358 265.474C292.358 264.993 292.744 264.607 293.226 264.607C293.708 264.607 294.094 264.999 294.094 265.474Z" fill="white"/>
<path d="M294.094 269.179C294.094 269.66 293.708 270.046 293.226 270.046C292.744 270.046 292.358 269.66 292.358 269.179C292.358 268.698 292.744 268.312 293.226 268.312C293.708 268.312 294.094 268.704 294.094 269.179Z" fill="white"/>
<path d="M300.242 264.607H297.561V272.658H300.242V264.607Z" fill="#455A64"/>
<path d="M304.113 264.607H301.431V272.658H304.113V264.607Z" fill="#455A64"/>
<path d="M307.99 264.607H305.308V272.658H307.99V264.607Z" fill="#455A64"/>
<path d="M311.861 264.607H309.179V272.658H311.861V264.607Z" fill="#455A64"/>
<path d="M315.737 264.607H313.056V272.658H315.737V264.607Z" fill="#455A64"/>
<path d="M319.608 264.607H316.926V272.658H319.608V264.607Z" fill="#455A64"/>
<path d="M323.479 264.607H320.797V272.658H323.479V264.607Z" fill="#455A64"/>
<path d="M327.356 264.607H324.674V272.658H327.356V264.607Z" fill="#455A64"/>
<path d="M331.226 264.607H328.545V272.658H331.226V264.607Z" fill="#455A64"/>
<path d="M335.103 264.607H332.422V272.658H335.103V264.607Z" fill="#455A64"/>
<path d="M348.331 263.06C349.291 263.06 350.069 262.283 350.069 261.325C350.069 260.367 349.291 259.591 348.331 259.591C347.372 259.591 346.594 260.367 346.594 261.325C346.594 262.283 347.372 263.06 348.331 263.06Z" fill="#178A00"/>
<path d="M348.331 269.583C349.291 269.583 350.069 268.807 350.069 267.849C350.069 266.891 349.291 266.114 348.331 266.114C347.372 266.114 346.594 266.891 346.594 267.849C346.594 268.807 347.372 269.583 348.331 269.583Z" fill="#FFF94D"/>
<path d="M348.331 276.106C349.291 276.106 350.069 275.33 350.069 274.372C350.069 273.414 349.291 272.637 348.331 272.637C347.372 272.637 346.594 273.414 346.594 274.372C346.594 275.33 347.372 276.106 348.331 276.106Z" fill="#FF6600"/>
<path d="M358.389 260.51H356.929V275.181H358.389V260.51Z" fill="#4D4D4D"/>
<path d="M362.769 260.51H361.309V275.181H362.769V260.51Z" fill="#4D4D4D"/>
<path d="M367.148 260.51H365.688V275.181H367.148V260.51Z" fill="#4D4D4D"/>
<path d="M371.527 260.51H370.068V275.181H371.527V260.51Z" fill="#4D4D4D"/>
<path d="M375.907 260.51H374.447V275.181H375.907V260.51Z" fill="#4D4D4D"/>
<path d="M380.286 260.51H378.826V275.181H380.286V260.51Z" fill="#4D4D4D"/>
<path d="M384.665 260.51H383.206V275.181H384.665V260.51Z" fill="#4D4D4D"/>
<path d="M335.519 159.924H286.792V173.622H335.519V159.924Z" fill="#263238"/>
<path d="M290.877 161.646H288.148V172.131H290.877V161.646Z" fill="url(#paint2_linear)"/>
<path d="M294.094 163.849C294.094 164.33 293.707 164.716 293.226 164.716C292.744 164.716 292.358 164.33 292.358 163.849C292.358 163.368 292.744 162.982 293.226 162.982C293.707 162.982 294.094 163.374 294.094 163.849Z" fill="white"/>
<path d="M294.094 167.553C294.094 168.034 293.707 168.42 293.226 168.42C292.744 168.42 292.358 168.034 292.358 167.553C292.358 167.072 292.744 166.687 293.226 166.687C293.707 166.687 294.094 167.078 294.094 167.553Z" fill="white"/>
<path d="M300.242 162.982H297.56V171.033H300.242V162.982Z" fill="#455A64"/>
<path d="M304.113 162.982H301.431V171.033H304.113V162.982Z" fill="#455A64"/>
<path d="M307.989 162.982H305.308V171.033H307.989V162.982Z" fill="#455A64"/>
<path d="M311.86 162.982H309.179V171.033H311.86V162.982Z" fill="#455A64"/>
<path d="M315.737 162.982H313.055V171.033H315.737V162.982Z" fill="#455A64"/>
<path d="M319.608 162.982H316.926V171.033H319.608V162.982Z" fill="#455A64"/>
<path d="M323.479 162.982H320.797V171.033H323.479V162.982Z" fill="#455A64"/>
<path d="M327.355 162.982H324.674V171.033H327.355V162.982Z" fill="#455A64"/>
<path d="M331.226 162.982H328.545V171.033H331.226V162.982Z" fill="#455A64"/>
<path d="M335.103 162.982H332.421V171.033H335.103V162.982Z" fill="#455A64"/>
<path d="M389.045 185.017H272.991V214.899H389.045V185.017Z" fill="#EBEBEB"/>
<path d="M335.519 193.172H286.792V206.87H335.519V193.172Z" fill="#263238"/>
<path d="M290.877 194.894H288.148V205.379H290.877V194.894Z" fill="url(#paint3_linear)"/>
<path d="M294.094 197.097C294.094 197.578 293.708 197.964 293.226 197.964C292.744 197.964 292.358 197.578 292.358 197.097C292.358 196.616 292.744 196.23 293.226 196.23C293.708 196.23 294.094 196.622 294.094 197.097Z" fill="white"/>
<path d="M294.094 200.801C294.094 201.282 293.708 201.668 293.226 201.668C292.744 201.668 292.358 201.282 292.358 200.801C292.358 200.32 292.744 199.935 293.226 199.935C293.708 199.935 294.094 200.326 294.094 200.801Z" fill="white"/>
<path d="M300.242 196.23H297.561V204.281H300.242V196.23Z" fill="#455A64"/>
<path d="M304.113 196.23H301.431V204.281H304.113V196.23Z" fill="#455A64"/>
<path d="M307.99 196.23H305.308V204.281H307.99V196.23Z" fill="#455A64"/>
<path d="M311.861 196.23H309.179V204.281H311.861V196.23Z" fill="#455A64"/>
<path d="M315.737 196.23H313.056V204.281H315.737V196.23Z" fill="#455A64"/>
<path d="M319.608 196.23H316.926V204.281H319.608V196.23Z" fill="#455A64"/>
<path d="M323.479 196.23H320.797V204.281H323.479V196.23Z" fill="#455A64"/>
<path d="M327.356 196.23H324.674V204.281H327.356V196.23Z" fill="#455A64"/>
<path d="M331.226 196.23H328.545V204.281H331.226V196.23Z" fill="#455A64"/>
<path d="M335.103 196.23H332.422V204.281H335.103V196.23Z" fill="#455A64"/>
<path d="M348.331 194.961C349.291 194.961 350.069 194.184 350.069 193.226C350.069 192.268 349.291 191.492 348.331 191.492C347.372 191.492 346.594 192.268 346.594 193.226C346.594 194.184 347.372 194.961 348.331 194.961Z" fill="#178A00"/>
<path d="M348.331 201.484C349.291 201.484 350.069 200.707 350.069 199.749C350.069 198.791 349.291 198.015 348.331 198.015C347.372 198.015 346.594 198.791 346.594 199.749C346.594 200.707 347.372 201.484 348.331 201.484Z" fill="#FFF94D"/>
<path d="M348.331 208.007C349.291 208.007 350.069 207.23 350.069 206.272C350.069 205.314 349.291 204.538 348.331 204.538C347.372 204.538 346.594 205.314 346.594 206.272C346.594 207.23 347.372 208.007 348.331 208.007Z" fill="#4D4D4D"/>
<path d="M358.389 192.41H356.929V207.081H358.389V192.41Z" fill="#4D4D4D"/>
<path d="M362.769 192.41H361.309V207.081H362.769V192.41Z" fill="#B4B4CC"/>
<path d="M367.148 192.41H365.688V207.081H367.148V192.41Z" fill="#4D4D4D"/>
<path d="M371.527 192.41H370.068V207.081H371.527V192.41Z" fill="#B4B4CC"/>
<path d="M375.907 192.41H374.447V207.081H375.907V192.41Z" fill="#4D4D4D"/>
<path d="M380.286 192.41H378.826V207.081H380.286V192.41Z" fill="#B4B4CC"/>
<path d="M384.665 192.41H383.206V207.081H384.665V192.41Z" fill="#B4B4CC"/>
<path d="M378.291 72.7412C378.291 72.7412 386.264 102.232 377.213 132.013C377.213 132.013 375.185 138.449 365.602 134.093L335.243 113.744L339.762 107.884C339.762 107.884 352.682 113.242 365.241 116.991C365.241 116.991 360.894 100.495 366.638 78.8393C368.05 73.5174 371.592 71.9262 376.501 72.282C377.12 72.3299 377.725 72.4853 378.291 72.7412Z" fill="#F7931E"/>
<path d="M396.831 146.896L395.522 176.117L395.074 186.027V303.136H381.019L370.478 146.896H396.831Z" fill="#3D3D3D"/>
<path d="M395.522 176.117L395.074 186.026V236.383C391.675 212.552 384.533 162.432 384.673 161.59L395.522 176.117Z" fill="#333231"/>
<path d="M428.455 300.503L431.091 309.28L417.914 311.036V300.503H428.455Z" fill="#1A1A1A"/>
<path d="M377.505 146.896H411.765L431.091 303.136L417.035 304.014L394.196 181.129L377.505 146.896Z" fill="#3D3D3D"/>
<path d="M366.876 306.515C371.327 304.305 376.054 302.699 380.931 301.74L395.083 302.258L395.821 309.658C395.839 309.831 395.821 310.007 395.767 310.173C395.714 310.339 395.625 310.492 395.509 310.622C395.392 310.752 395.249 310.856 395.089 310.927C394.93 310.998 394.757 311.035 394.582 311.036H360.323C360.18 311.037 360.04 310.991 359.926 310.905C359.813 310.818 359.731 310.696 359.695 310.558C359.658 310.42 359.669 310.273 359.726 310.142C359.782 310.01 359.881 309.902 360.006 309.833C361.983 308.718 364.267 307.823 366.876 306.515Z" fill="#1A1A1A"/>
<path d="M417.914 311.036C417.914 311.036 416.948 304.014 424.063 303.575C424.063 303.575 429.773 303.171 433.331 310.123C433.375 310.215 433.395 310.317 433.39 310.419C433.384 310.521 433.354 310.62 433.3 310.707C433.247 310.794 433.173 310.866 433.085 310.918C432.997 310.969 432.897 310.998 432.795 311.001L417.914 311.036Z" fill="#1A1A1A"/>
<path d="M384.094 160.519C384.094 160.519 391.121 173.685 393.756 179.83" stroke="#808080" stroke-width="0.5" stroke-miterlimit="10" stroke-linecap="round"/>
<path d="M420.989 76.2549C420.751 77.1326 413.082 104.431 412.204 111.365C411.958 116.307 411.8 121.433 411.765 126.726C411.712 133.914 411.879 140.77 412.204 147.353C412.204 147.353 410.166 148.055 406.784 148.836C405.027 149.231 402.98 149.652 400.635 150.004C392.272 151.268 380.615 151.68 370.03 147.37C370.03 147.37 364.759 90.3164 370.03 73.6392L384.963 63.9839H399.897L410.772 70.0228L420.989 76.2549Z" fill="#F7931E"/>
<path d="M412.204 111.364C411.958 116.306 411.8 121.432 411.765 126.725C411.712 133.914 411.879 140.769 412.204 147.352C412.204 147.352 410.166 148.054 406.784 148.836C405.027 149.231 402.98 149.652 400.635 150.003C399.036 138.636 401.873 119.194 406.485 101.27C407.804 96.1525 409.567 91.1596 411.756 86.3486C414.822 82.9955 417.905 79.625 420.971 76.272C420.742 77.1322 413.065 104.43 412.204 111.364Z" fill="#E57607"/>
<path d="M368.466 82.0566C368.466 82.0566 367.403 104.343 368.282 114.876" stroke="#CE6700" stroke-width="0.5" stroke-miterlimit="10" stroke-linecap="round"/>
<path d="M428.991 305.488C428.991 305.488 422.745 300.959 419.232 306.226" stroke="#808080" stroke-width="0.5" stroke-miterlimit="10" stroke-linecap="round"/>
<path d="M399.027 154.375C399.027 154.375 402.541 162.274 411.326 162.274" stroke="#808080" stroke-width="0.5" stroke-miterlimit="10" stroke-linecap="round"/>
<path d="M418.353 218.451C418.353 220.206 428.016 293.937 428.016 293.937" stroke="#808080" stroke-miterlimit="10" stroke-linecap="round"/>
<path d="M384.577 49.2812V65.309C384.998 65.7918 387.889 69.6978 392.685 69.6539C397.481 69.61 400.336 65.7918 400.749 65.309V49.2812H384.577Z" fill="#FFD3CA"/>
<path d="M384.067 58.7876C384.99 58.1644 387.871 58.4804 387.897 58.4804L387.941 58.1556C387.818 58.1556 384.91 57.8309 383.883 58.5067L384.067 58.7876Z" fill="#E08C8C"/>
<path d="M401.074 59.999H385.561C384.993 59.999 384.533 60.4588 384.533 61.026V71.2606C384.533 71.8278 384.993 72.2875 385.561 72.2875H401.074C401.642 72.2875 402.102 71.8278 402.102 71.2606V61.026C402.102 60.4588 401.642 59.999 401.074 59.999Z" fill="#F7931E"/>
<path d="M384.972 65.7217C387.345 67.365 390.146 68.2818 393.032 68.3597C395.919 68.4376 398.765 67.6734 401.223 66.1606" stroke="#CE6700" stroke-width="0.5" stroke-miterlimit="10" stroke-linecap="round"/>
<path d="M385.851 61.333C388.079 62.3049 390.454 62.8982 392.878 63.0885C395.545 63.2857 398.226 62.9881 400.784 62.2108" stroke="#CE6700" stroke-width="0.5" stroke-miterlimit="10" stroke-linecap="round"/>
<path d="M396.629 56.8389C396.629 56.8389 391.271 65.3355 384.577 64.7386V60.1831L396.629 56.8389Z" fill="#EA8C8C"/>
<path d="M379.824 40.513C379.824 40.513 378.876 60.4555 385.534 61.421C386.715 61.611 387.919 61.611 389.101 61.421C392.21 60.8521 395.001 59.1623 396.945 56.6724L400.749 51.9149V32.9116L379.824 33.8596V40.513Z" fill="#FFD3CA"/>
<path d="M402.55 31.8757C405.185 36.4926 403.112 41.6187 402.787 42.4087C402.77 42.4923 402.723 42.567 402.655 42.6194L399.713 44.9278C399.665 44.9646 399.61 44.9893 399.551 44.9998C399.492 45.0103 399.431 45.0064 399.374 44.9882C399.317 44.9701 399.265 44.9383 399.223 44.8957C399.181 44.853 399.15 44.8008 399.133 44.7435L396.699 36.756C396.623 36.3548 396.46 35.9752 396.221 35.6432C395.983 35.3113 395.676 35.0351 395.32 34.8337C393.836 34.1842 392.536 36.1152 389.074 37.1334C387.818 37.4933 388.196 37.1773 383.804 37.7829C379.991 38.3096 379.411 38.5993 378.867 38.1165C377.672 36.9666 378.867 33.1747 380.843 30.8838C383.11 28.2242 386.843 26.9866 387.59 26.7408H387.687C391.104 25.5997 399.247 26.0211 402.55 31.8757Z" fill="#333333"/>
<path d="M383.742 52.301C385.262 52.301 386.299 51.985 386.835 51.4233L386.369 50.9581C386.141 51.1863 385.49 51.5725 383.734 51.6076C383.606 51.6022 383.485 51.5525 383.391 51.4672C383.304 51.3805 383.251 51.2651 383.242 51.1424L384.471 43.6903L383.821 43.585L382.6 51.1512C382.599 51.3033 382.629 51.4541 382.688 51.5945C382.747 51.7348 382.834 51.8617 382.943 51.9675C383.156 52.1785 383.443 52.2981 383.742 52.301Z" fill="#E08C8C"/>
<path d="M385.569 43.6815C386.395 43.3725 387.252 43.1576 388.126 43.0407C389.19 42.9003 390.268 42.9003 391.332 43.0407L391.42 42.3912C390.298 42.242 389.16 42.242 388.038 42.3912C387.117 42.5156 386.212 42.7423 385.341 43.067L385.569 43.6815Z" fill="#333333"/>
<path d="M382.381 43.3479L382.609 42.7335C381.618 42.3713 380.554 42.2538 379.508 42.3912L379.596 43.0407C380.112 42.9705 380.635 42.9705 381.151 43.0407C381.571 43.0956 381.984 43.1986 382.381 43.3479Z" fill="#333333"/>
<path d="M385.402 55.1886C385.765 55.1854 386.126 55.1531 386.483 55.0921C387.759 54.8829 388.947 54.3064 389.9 53.4331L389.557 53.0732C388.73 53.8559 387.697 54.3877 386.579 54.6068C385.461 54.8259 384.303 54.7233 383.241 54.3109L383.066 54.7673C383.812 55.0509 384.604 55.1937 385.402 55.1886Z" fill="#E08C8C"/>
<path d="M388.108 46.9818C388.362 46.9818 388.605 46.881 388.785 46.7016C388.965 46.5222 389.065 46.2788 389.065 46.0251V45.2614C389.065 45.0077 388.965 44.7643 388.785 44.5849C388.605 44.4055 388.362 44.3047 388.108 44.3047C387.854 44.3047 387.61 44.4055 387.431 44.5849C387.251 44.7643 387.15 45.0077 387.15 45.2614V46.0251C387.15 46.2788 387.251 46.5222 387.431 46.7016C387.61 46.881 387.854 46.9818 388.108 46.9818Z" fill="#333333"/>
<path d="M381.722 46.9819H381.836C382.229 46.9819 382.548 46.6636 382.548 46.271V45.007C382.548 44.6143 382.229 44.296 381.836 44.296H381.722C381.329 44.296 381.01 44.6143 381.01 45.007V46.271C381.01 46.6636 381.329 46.9819 381.722 46.9819Z" fill="#333333"/>
<path d="M398.228 50.4751C398.497 50.9316 398.862 51.3247 399.297 51.6276C399.732 51.9305 400.227 52.1362 400.749 52.2306V50.7999L398.228 50.4751Z" fill="#EA8C8C"/>
<path d="M395.996 46.2181C395.996 48.5705 397.859 51.0019 399.8 50.9667C401.381 50.9667 402.488 49.3166 402.655 49.0708C403.296 48.1316 403.393 47.1749 403.604 45.2614C403.747 44.6375 403.747 43.9893 403.604 43.3654C403.094 42.0576 401.294 41.2939 399.8 41.4607C397.613 41.7152 395.996 44.015 395.996 46.2181Z" fill="#FFD3CA"/>
<path d="M399.589 45.0153C399.589 45.656 400.073 45.7789 400.248 46.6567C400.424 47.5344 400.02 48.1664 400.248 48.2981C400.477 48.4297 401.004 47.9118 401.232 47.6397C401.552 47.2583 401.777 46.8074 401.891 46.3231C402.036 46.0158 402.112 45.68 402.112 45.34C402.112 45.0001 402.036 44.6643 401.891 44.357C401.76 44.152 401.575 43.9866 401.357 43.8784C401.139 43.7701 400.895 43.7232 400.652 43.7425C400.363 43.8146 400.104 43.9767 399.913 44.2055C399.722 44.4343 399.609 44.7179 399.589 45.0153Z" fill="#EA8C8C"/>
<path d="M379.868 56.839C379.209 58.059 378.26 61.2804 379.209 63.4133C380.457 66.2221 384.893 66.8453 387.423 66.6961C392.614 66.3889 395.671 62.3073 396.304 61.4296C397.599 59.5834 398.392 57.433 398.605 55.1888C398.605 53.9687 398.605 52.7047 398.605 51.4145C398.561 49.1762 398.447 47.0257 398.28 45.0069L396.963 44.6558C396.37 45.8651 395.594 46.9755 394.661 47.9473C393.66 48.9743 392.614 49.7028 392.026 51.2301C391.866 51.6547 391.757 52.0966 391.701 52.5467C391.589 52.7161 391.445 52.861 391.276 52.9727C391.106 53.0843 390.916 53.1604 390.717 53.1963C390.172 53.249 389.838 52.8276 389.399 52.5467C388.591 51.9762 387.344 52.0377 384.796 52.2132C381.871 52.4239 381.388 52.8978 381.177 53.1963C380.927 53.5879 380.813 54.0503 380.852 54.5129C380.722 55.3577 380.384 56.157 379.868 56.839ZM386.439 55.8559C386.228 55.6979 386.184 55.3819 385.78 55.1976C385.623 55.1243 385.453 55.0857 385.28 55.0841C385.107 55.0826 384.936 55.1183 384.778 55.1888C384.533 55.3029 384.55 55.417 384.287 55.6013C384.216 55.6452 383.575 56.0841 383.136 55.8471C382.997 55.7494 382.888 55.6164 382.818 55.4621C382.749 55.3077 382.722 55.1376 382.74 54.9693C382.744 54.8517 382.788 54.739 382.865 54.6496C382.942 54.5603 383.046 54.4997 383.162 54.4778C383.914 54.3398 384.674 54.2548 385.437 54.2233C386.581 54.1775 387.727 54.254 388.855 54.4515C388.899 54.4604 388.941 54.4821 388.973 54.514C389.006 54.5458 389.029 54.5864 389.039 54.6309C389.049 54.6754 389.046 54.7219 389.031 54.7648C389.015 54.8077 388.988 54.8452 388.951 54.8728C387.414 55.9963 386.737 56.0665 386.439 55.8559Z" fill="#333333"/>
<path d="M397.288 37.7827C397.288 38.4264 397.288 39.0847 397.288 39.7577C397.288 41.5132 397.138 43.1458 396.963 44.6818C397.376 45.0681 397.92 45.4982 398.157 45.3489C398.395 45.1997 398.272 45.0944 398.28 45.0154C398.397 43.9603 398.732 42.941 399.264 42.0223C399.589 41.4882 400.046 41.0469 400.591 40.7407L397.288 37.7827Z" fill="#333333"/>
<path d="M380.088 49.7642C380.026 50.1855 379.929 50.8526 379.868 51.6864C379.791 52.7501 379.791 53.8178 379.868 54.8815C379.95 57.5193 379.838 60.1596 379.534 62.7812L382.17 61.1398C380.439 51.8971 380.079 49.8432 380.088 49.7642Z" fill="#333333"/>
<path d="M382.144 53.5557C381.79 53.5305 381.448 53.4157 381.151 53.2222C380.825 52.9539 380.567 52.6135 380.396 52.228C380.225 51.8425 380.147 51.4226 380.167 51.0015V55.5219C380.167 55.5219 380.993 56.5752 381.116 56.4874C381.177 56.2855 381.546 55.2322 382.144 53.5557Z" fill="#333333"/>
<path d="M382.656 65.7144C382.656 65.7144 382.869 72.4531 383.444 76.7259C383.92 80.2642 385.013 84.8598 385.856 88.1257C386.374 90.1323 388.149 90.4104 389.012 88.5262C390.473 85.3362 392.436 80.748 394.611 77.3174C397.535 72.7034 401.297 68.0854 402.975 66.1052" stroke="#333333" stroke-width="2"/>
<rect width="13.6929" height="7.75932" rx="2" transform="matrix(0.9986 0.0528928 -0.0528978 0.9986 381.304 91.2394)" fill="#E57607"/>
<rect width="13.6929" height="7.75932" rx="2" transform="matrix(0.9986 0.0528928 -0.0528978 0.9986 380.033 89.3438)" fill="white"/>
<path d="M363.37 90.2337L381.059 93.0077C381.8 93.1255 382.463 93.5329 382.904 94.1404C383.344 94.7479 383.525 95.5056 383.406 96.247L375.461 146.351C375.343 147.089 374.936 147.751 374.331 148.19C373.726 148.629 372.972 148.811 372.234 148.695L354.732 145.94C356.433 144.677 357.723 142.94 358.442 140.948C359.16 138.955 359.275 136.795 358.771 134.738C358.267 132.682 357.168 130.821 355.61 129.388C354.052 127.956 352.106 127.015 350.015 126.686C347.924 126.356 345.782 126.651 343.857 127.535C341.933 128.418 340.311 129.85 339.196 131.651C338.08 133.452 337.521 135.542 337.588 137.659C337.656 139.775 338.346 141.824 339.573 143.549L322.071 140.794C321.705 140.737 321.354 140.609 321.038 140.416C320.722 140.224 320.447 139.971 320.23 139.671C320.012 139.372 319.855 139.033 319.769 138.672C319.683 138.312 319.669 137.939 319.728 137.573L322.511 120.005C320.798 121.249 318.756 121.958 316.642 122.041C314.529 122.125 312.438 121.58 310.635 120.475C308.831 119.37 307.396 117.755 306.511 115.834C305.625 113.913 305.329 111.772 305.66 109.681C305.99 107.591 306.932 105.644 308.367 104.088C309.802 102.532 311.666 101.436 313.722 100.938C315.779 100.44 317.936 100.563 319.922 101.291C321.907 102.019 323.632 103.32 324.878 105.029L327.656 87.4577C327.714 87.0918 327.843 86.7408 328.037 86.4249C328.23 86.109 328.484 85.8343 328.784 85.6166C329.084 85.3989 329.424 85.2424 329.784 85.1561C330.144 85.0699 330.518 85.0555 330.883 85.1138L347.538 87.747L363.37 90.2337Z" fill="#178A00"/>
<path fill-rule="evenodd" clip-rule="evenodd" d="M353.12 113.958C352.451 113.803 351.799 113.583 351.171 113.301C351.074 113.238 350.636 113.006 350.522 112.932C349.622 112.323 348.895 111.494 348.417 110.528C347.939 109.563 347.728 108.497 347.805 107.441C347.882 106.386 348.245 105.378 348.856 104.524C349.467 103.669 350.304 102.999 351.279 102.582C352.255 102.165 353.334 102.016 354.405 102.152C355.476 102.287 356.5 102.702 357.371 103.352C358.241 104.003 358.926 104.866 359.355 105.852C359.785 106.839 359.942 107.912 359.812 108.961L361.991 109.339C362.184 107.921 361.99 106.465 361.43 105.121C360.87 103.777 359.963 102.592 358.803 101.687C357.642 100.782 356.268 100.189 354.822 99.9688C353.375 99.7482 351.907 99.9078 350.567 100.431C349.227 100.955 348.062 101.824 347.192 102.95C346.322 104.076 345.776 105.418 345.612 106.841C345.447 108.264 345.67 109.716 346.256 111.05C346.841 112.384 347.77 113.552 348.948 114.435C349.352 114.725 349.776 114.986 350.216 115.218C350.977 115.569 351.769 115.846 352.58 116.045C352.845 116.109 353.786 116.279 354.062 116.326L368.997 118.864L369.313 116.725L354.413 114.195C354.178 114.158 353.303 114 353.12 113.958ZM354.849 110.844L353.713 110.64C353.423 110.567 353.138 110.48 352.857 110.377C352.649 110.286 352.45 110.177 352.262 110.05C351.894 109.771 351.603 109.403 351.42 108.984C351.238 108.565 351.168 108.109 351.22 107.662C351.271 107.215 351.441 106.793 351.713 106.439C351.984 106.084 352.348 105.809 352.767 105.641C353.187 105.474 353.647 105.42 354.102 105.484C354.557 105.548 354.99 105.729 355.358 106.008C355.727 106.288 356.017 106.655 356.2 107.074C356.384 107.493 356.453 107.949 356.402 108.396L358.485 108.75C358.584 107.941 358.463 107.115 358.134 106.354C357.805 105.594 357.281 104.927 356.614 104.42C355.948 103.914 355.162 103.587 354.339 103.472C353.515 103.357 352.681 103.459 351.923 103.767C351.166 104.075 350.511 104.578 350.024 105.225C349.538 105.872 349.239 106.64 349.157 107.451C349.074 108.261 349.212 109.086 349.555 109.84C349.899 110.595 350.436 111.252 351.112 111.746C351.348 111.918 351.602 112.066 351.868 112.185C352.335 112.382 352.818 112.538 353.31 112.652C353.475 112.697 354.324 112.846 354.505 112.879L369.476 115.424L369.77 113.38L354.87 110.85L354.849 110.844ZM343.141 114.444L340.957 114.071L342.957 100.155L339.759 99.6267L340.068 97.4835L345.449 98.3995L343.146 114.448L343.141 114.444ZM337.214 100.276L336.919 102.335L339.322 102.743L337.77 113.526L339.873 113.886L341.726 101.023L337.214 100.276Z" fill="white"/>
<path d="M391.917 120.949C389.757 118.836 387.457 116.871 385.036 115.07C383.439 113.855 381.72 112.815 379.908 111.964C378.951 111.439 377.909 111.088 376.831 110.929C376.185 110.867 375.221 110.929 371.703 111.964C370.77 112.254 369.97 112.523 369.324 112.751C369.114 112.825 368.933 112.966 368.809 113.152C368.685 113.339 368.624 113.562 368.637 113.786C368.661 114.043 368.713 114.296 368.791 114.542C369 115.09 369.291 115.603 369.652 116.063C370.462 117.388 370.083 117.999 370.678 119.169C371.139 120.052 371.854 120.773 372.729 121.239C373.631 121.518 375.057 121.912 376.831 122.274C379.498 122.833 381.067 122.905 384.01 123.309C385.446 123.516 387.569 123.837 390.163 124.344L391.917 120.949Z" fill="#F9C6B9"/>
<path d="M420.969 76.0921C420.969 76.0921 435.418 103.008 433.354 134.065C433.354 134.065 432.838 140.794 422.517 138.724L388.335 125.786L391.408 119.054C391.408 119.054 405.207 121.344 418.289 122.148C418.289 122.148 410.315 107.067 411.001 84.6728C411.17 79.1695 414.26 76.8167 419.121 76.0507C419.735 75.957 420.36 75.971 420.969 76.0921Z" fill="#F7931E"/>
<path d="M432.819 115.39C433.121 120.517 433.142 124.882 433.08 128.245C432.975 134.093 432.62 136.223 430.991 137.643C429.049 139.345 426.23 139.22 424.601 138.98" stroke="#C36302" stroke-miterlimit="10" stroke-linecap="round"/>
<path d="M388.783 124.792L406.245 132.403" stroke="#C46302" stroke-miterlimit="10" stroke-linecap="round"/>
<path d="M414.123 111.505C414.067 111.505 414.011 111.487 413.965 111.453C413.92 111.42 413.886 111.372 413.868 111.318C407.499 88.8946 412.015 80.5967 412.209 80.2585C412.242 80.1986 412.296 80.1538 412.361 80.134C412.427 80.1142 412.497 80.1208 412.557 80.1526C412.616 80.1885 412.659 80.2459 412.677 80.3126C412.695 80.3794 412.686 80.4505 412.653 80.5111C412.653 80.5111 411.489 82.6231 411.128 87.4266C410.784 91.8673 411.078 99.585 414.37 111.176C414.379 111.209 414.381 111.243 414.377 111.277C414.372 111.311 414.361 111.343 414.344 111.373C414.326 111.402 414.304 111.428 414.276 111.449C414.249 111.469 414.218 111.484 414.185 111.493L414.123 111.505Z" fill="#C36302"/>
<path d="M108.786 180.398C108.854 180.632 108.854 180.882 108.784 181.116C108.714 181.351 108.578 181.56 108.392 181.721C108.266 181.828 108.118 181.909 107.959 181.956C107.8 182.004 107.633 182.018 107.467 181.998C107.302 181.977 107.144 181.922 107.001 181.837C106.859 181.752 106.736 181.638 106.64 181.503L102.76 176.525C102.595 176.3 102.504 176.031 102.501 175.753C102.498 175.475 102.583 175.203 102.743 174.975L104.372 172.582C104.461 172.447 104.577 172.333 104.713 172.246C104.849 172.158 105.002 172.1 105.161 172.075C105.321 172.049 105.485 172.057 105.641 172.098C105.798 172.139 105.944 172.212 106.071 172.312C106.341 172.517 106.523 172.816 106.58 173.148C106.637 173.481 106.565 173.823 106.377 174.105L105.283 175.715L108.567 179.928C108.67 180.068 108.745 180.228 108.786 180.398Z" fill="#DB7C6F"/>
<path d="M106.526 172.799C106.605 173.057 106.622 173.33 106.576 173.596C106.531 173.862 106.424 174.114 106.264 174.331L104.923 175.872L107.665 181.868C107.849 182.206 107.909 182.597 107.834 182.974C107.759 183.35 107.553 183.689 107.253 183.931C106.666 184.279 105.896 183.931 105.502 183.13L102.305 176.037C102.152 175.747 102.085 175.42 102.112 175.093C102.138 174.767 102.257 174.454 102.454 174.192L104.433 171.894C104.553 171.773 104.7 171.68 104.863 171.625C105.025 171.57 105.198 171.553 105.368 171.576C105.538 171.599 105.7 171.66 105.842 171.757C105.984 171.853 106.101 171.98 106.185 172.129C106.342 172.328 106.458 172.556 106.526 172.799Z" fill="#E5978C"/>
<path d="M98.7136 176.69L101.683 180.928L104.678 185.21C104.848 185.454 105.101 185.626 105.39 185.696C105.68 185.767 105.985 185.729 106.248 185.591C106.511 185.452 106.714 185.223 106.818 184.946C106.923 184.669 106.922 184.364 106.815 184.088L104.985 179.353L103.645 175.872L105.37 172.756C106.088 173.931 108.453 177.639 109.828 177.804C110.047 177.804 110.52 177.882 110.704 177.63C110.888 177.377 110.564 176.82 110.529 176.759L106.885 168.648L106.815 168.561L105.633 162.138C105.603 161.98 105.543 161.829 105.454 161.694C105.365 161.56 105.25 161.444 105.116 161.354C104.982 161.263 104.83 161.2 104.671 161.168C104.511 161.137 104.347 161.138 104.188 161.172L100.316 161.964C99.9194 164.818 99.5282 167.67 99.1428 170.519L98.556 175.854C98.5026 176.143 98.5588 176.44 98.7136 176.69Z" fill="#F9C6B9"/>
<path d="M166.059 166.947C165.792 167.024 165.559 167.19 165.399 167.417C165.239 167.644 165.162 167.92 165.18 168.197C165.198 168.474 165.31 168.737 165.499 168.942C165.687 169.146 165.94 169.28 166.215 169.321L172.172 170.184C172.435 170.223 172.704 170.174 172.937 170.045C173.17 169.915 173.353 169.712 173.459 169.468L174.581 166.878C174.683 166.588 174.671 166.27 174.548 165.988C174.424 165.706 174.199 165.482 173.917 165.359C173.635 165.237 173.317 165.226 173.027 165.328C172.736 165.431 172.496 165.639 172.353 165.912L171.594 167.638L166.56 166.913C166.392 166.894 166.223 166.905 166.059 166.947Z" fill="#DB7C6F"/>
<path d="M173.545 166.74C173.329 166.798 173.134 166.916 172.981 167.079C172.829 167.242 172.725 167.445 172.681 167.664L172.293 169.52L167.216 169.848C166.907 169.884 166.624 170.038 166.425 170.278C166.225 170.517 166.126 170.823 166.145 171.134C166.165 171.445 166.304 171.736 166.532 171.948C166.76 172.16 167.06 172.276 167.371 172.273L173.415 171.885C173.67 171.863 173.911 171.762 174.103 171.594C174.296 171.426 174.43 171.202 174.486 170.953L175.064 168.156C175.097 167.999 175.099 167.838 175.069 167.681C175.04 167.524 174.98 167.374 174.892 167.24C174.805 167.106 174.692 166.991 174.56 166.901C174.428 166.81 174.28 166.747 174.123 166.714C173.931 166.678 173.733 166.687 173.545 166.74Z" fill="#F4AA89"/>
<path d="M176.946 168.924L173.415 173.862C171.896 174.656 170.635 175.269 169.711 175.666C169.505 175.803 169.272 175.893 169.028 175.932C168.783 175.971 168.534 175.957 168.295 175.89C167.987 175.695 167.769 175.386 167.686 175.031C167.604 174.676 167.664 174.302 167.855 173.991L171.956 171.816L171.801 168.501L168.874 166.507C168.875 166.636 168.854 166.765 168.813 166.887L167.087 172.368C167.019 172.684 166.829 172.961 166.557 173.136C166.286 173.312 165.956 173.373 165.64 173.305C165.324 173.238 165.048 173.047 164.872 172.776C164.697 172.505 164.636 172.175 164.704 171.859L165.653 163.555V163.434L165.567 156.667C165.521 156.51 165.508 156.346 165.526 156.184C165.545 156.022 165.597 155.866 165.677 155.724C165.758 155.583 165.866 155.458 165.995 155.359C166.125 155.26 166.273 155.188 166.43 155.147L168.347 154.595C168.502 154.546 168.665 154.528 168.826 154.543C168.988 154.558 169.145 154.605 169.288 154.681C169.431 154.758 169.558 154.862 169.66 154.988C169.762 155.114 169.839 155.259 169.884 155.415V155.518L173.389 161.647L176.368 166.136L176.946 168.924Z" fill="#F9C6B9"/>
<path d="M155.495 148.421C136.227 156.254 113.454 148.421 113.454 148.421C113.507 147.289 113.559 146.149 113.603 145C113.831 139.535 113.927 133.857 113.892 127.968C113.892 122.746 113.7 117.637 113.454 112.737C112.815 107.689 108.839 91.1959 106.701 82.5186C105.887 79.22 105.37 77.0528 105.37 77.0528L124.875 65.7384H140.641L155.53 75.3122C155.846 76.8875 156.468 80.0381 157.046 84.0156C157.046 84.0156 159.857 103.328 155.53 148.421H155.495Z" fill="#E6E6E6"/>
<path d="M140.536 51.5699V66.6095C140.965 68.8201 141.709 73.929 139.494 75.3129C137.015 76.8621 131.296 73.4852 125.278 66.6095V51.5699H140.536Z" fill="#F9C6B9"/>
<path d="M129.167 58.6635C129.167 58.6635 134.221 66.6358 140.553 66.0352V61.7706L129.167 58.6635Z" fill="#DB7C6F"/>
<path d="M145.02 43.3362C145.02 43.3362 145.896 62.066 139.634 62.9624C138.519 63.1333 137.385 63.1333 136.27 62.9624C133.337 62.424 130.704 60.8355 128.869 58.4976C127.672 57.018 126.475 55.5326 125.278 54.0414V36.2081L145.02 37.0785V43.3362Z" fill="#F9C6B9"/>
<path d="M121.136 35.2598L123.334 45.1033C123.352 45.1814 123.395 45.2516 123.457 45.3035L126.207 47.4794C126.25 47.5166 126.303 47.5424 126.359 47.5542C126.415 47.5661 126.473 47.5637 126.528 47.5472C126.583 47.5307 126.633 47.5007 126.674 47.4599C126.714 47.4192 126.743 47.369 126.759 47.314L129.08 39.803C129.093 39.7555 129.116 39.7114 129.148 39.6738C129.18 39.6362 129.22 39.606 129.265 39.5853C129.31 39.5646 129.359 39.5539 129.409 39.5539C129.459 39.5539 129.508 39.5646 129.553 39.5854C132.294 40.7777 149.951 47.9233 150.573 34.3633C150.573 34.3633 150.573 34.3024 150.573 34.2763C150.731 33.7802 152.167 28.6452 146.194 29.15C146.145 29.1545 146.098 29.1692 146.056 29.1932C146.014 29.2173 145.977 29.25 145.949 29.2892C145.581 29.7766 143.794 31.5608 137.654 30.4642H137.558C137.041 30.2118 131.777 27.8532 122.248 32.875C121.833 33.105 121.502 33.4596 121.302 33.8879C121.102 34.3163 121.044 34.7965 121.136 35.2598Z" fill="#333333"/>
<path d="M141.324 54.3981C140.285 54.495 139.245 54.2135 138.399 53.6061L138.837 53.1709C139.056 53.3885 139.712 53.7541 141.333 53.7802C141.451 53.7804 141.566 53.7354 141.652 53.6544C141.738 53.5735 141.79 53.4628 141.797 53.345L140.641 46.3823L141.245 46.2778L142.419 53.3537C142.419 53.4964 142.39 53.6376 142.335 53.7692C142.279 53.9007 142.197 54.0199 142.095 54.1196C141.884 54.3082 141.608 54.408 141.324 54.3981Z" fill="#DB7C6F"/>
<path d="M139.275 47.2267C137.68 46.5288 135.887 46.4237 134.221 46.9308L134.037 46.3476C135.847 45.7962 137.796 45.9105 139.529 46.6696L139.275 47.2267Z" fill="#333333"/>
<path d="M142.156 47.0354L141.911 46.4784C142.598 46.2534 143.309 46.1131 144.03 46.0606C144.459 46.0257 144.89 46.0257 145.318 46.0606L145.265 46.6698C144.869 46.6437 144.471 46.6437 144.074 46.6698C143.422 46.7132 142.778 46.8359 142.156 47.0354Z" fill="#333333"/>
<path d="M139.756 57.1225C139.416 57.1223 139.076 57.0932 138.74 57.0354C137.531 56.8284 136.41 56.2714 135.517 55.434L135.841 55.1033C136.668 55.8743 137.703 56.3886 138.819 56.5829C139.821 56.7486 140.848 56.6465 141.797 56.2869L141.963 56.7221C141.258 56.986 140.51 57.1216 139.756 57.1225Z" fill="#DB7C6F"/>
<path d="M137.208 49.4115C136.975 49.4115 136.752 49.3198 136.588 49.1566C136.424 48.9934 136.332 48.772 136.332 48.5412V47.8188C136.332 47.5811 136.427 47.353 136.596 47.1849C136.765 47.0168 136.995 46.9224 137.234 46.9224C137.473 46.9224 137.703 47.0168 137.872 47.1849C138.041 47.353 138.136 47.5811 138.136 47.8188V48.5412C138.136 48.66 138.112 48.7776 138.065 48.8868C138.017 48.9959 137.948 49.0943 137.861 49.1758C137.774 49.2574 137.671 49.3204 137.559 49.3609C137.446 49.4014 137.327 49.4187 137.208 49.4115Z" fill="#333333"/>
<path d="M143.899 47.6185C143.899 47.2195 143.576 46.8961 143.177 46.8961C142.777 46.8961 142.454 47.2195 142.454 47.6185V48.689C142.454 49.088 142.777 49.4114 143.177 49.4114C143.576 49.4114 143.899 49.088 143.899 48.689V47.6185Z" fill="#333333"/>
<path d="M140.509 60.4037C140.13 60.2624 139.737 60.1632 139.336 60.1078C138.847 60.0469 138.353 60.0469 137.864 60.1078L137.777 59.5334C138.318 59.4638 138.865 59.4638 139.406 59.5334C139.852 59.5922 140.289 59.7003 140.711 59.8554L140.509 60.4037Z" fill="#DB7C6F"/>
<path d="M127.661 52.6924C127.402 53.1149 127.056 53.4778 126.645 53.7569C126.234 54.036 125.768 54.225 125.278 54.3112V52.9535L127.661 52.6924Z" fill="#DB7C6F"/>
<path d="M129.763 48.6892C129.763 50.9086 128.011 53.1802 126.172 53.1541C124.692 53.1541 123.64 51.6049 123.483 51.3699C122.878 50.4995 122.782 49.6292 122.607 47.8015C122.478 47.2137 122.478 46.6051 122.607 46.0173C123.089 44.7901 124.797 44.0764 126.198 44.2766C128.239 44.4681 129.763 46.6265 129.763 48.6892Z" fill="#F9C6B9"/>
<path d="M126.391 47.5662C126.391 48.1667 125.935 48.2799 125.769 49.1067C125.602 49.9335 125.988 50.5254 125.769 50.6472C125.55 50.7691 125.059 50.2817 124.84 50.0293C124.543 49.6684 124.331 49.2462 124.219 48.7934C124.082 48.5048 124.011 48.1898 124.011 47.8708C124.011 47.5519 124.082 47.2369 124.219 46.9483C124.343 46.755 124.518 46.5993 124.725 46.498C124.932 46.3967 125.162 46.3538 125.392 46.3738C125.664 46.4416 125.908 46.5937 126.087 46.808C126.267 47.0224 126.373 47.2879 126.391 47.5662Z" fill="#DB7C6F"/>
<path d="M172.811 159.727C171.486 159.423 170.109 159.412 168.778 159.695C167.448 159.977 166.196 160.547 165.112 161.364C164.981 161.146 164.858 160.937 164.744 160.72C163.439 158.422 162.231 156.037 161.118 153.592C160.68 152.617 160.242 151.625 159.831 150.632C159.419 149.64 158.955 148.448 158.535 147.343C157.729 145.228 156.984 143.078 156.301 140.919C155.259 137.612 154.357 134.279 153.568 130.945C146.824 102.65 148.55 74.9736 148.55 74.9736C149.655 74.3267 150.92 73.9982 152.202 74.0249C155.224 74.1294 158.035 76.4184 159.419 79.8214C160.821 86.9147 162.047 94.4083 163.142 102.294C163.895 107.933 164.505 113.396 164.972 118.682C166.794 126.228 168.476 134.183 170.017 142.53C171.086 148.43 172.017 154.163 172.811 159.727Z" fill="#333333"/>
<path d="M161.425 116.219C160.426 126.588 159.445 136.953 158.482 147.316C157.676 145.201 156.932 143.052 156.249 140.893C155.361 137.47 154.459 134.139 153.542 130.902C153.542 124.333 153.688 117.539 153.98 110.518C154.272 103.167 154.71 96.0735 155.294 89.2384C157.804 94.4837 159.572 100.048 160.549 105.775C161.134 109.226 161.427 112.719 161.425 116.219Z" fill="#282828"/>
<path d="M154.322 302.359L140.212 302.873L139.476 310.218C139.459 310.391 139.478 310.564 139.533 310.729C139.588 310.893 139.677 311.044 139.794 311.172C139.911 311.3 140.054 311.402 140.214 311.472C140.373 311.541 140.546 311.577 140.72 311.576H172.251L172.566 310.392L154.322 302.359Z" fill="#1A1A1A"/>
<path d="M128.528 147.733L131.646 176.568L132.714 186.342C135.266 225.641 137.829 264.931 140.404 304.212L147.411 303.342L154.418 302.471L154.786 146.097L128.528 147.733Z" fill="#3D3D3D"/>
<path d="M131.646 176.568L132.714 186.342L135.85 236.213C137.751 212.417 141.701 162.382 141.543 161.555L131.646 176.568Z" fill="#333231"/>
<path d="M106.623 301.697L104.547 310.549L117.772 311.471L117.115 301.044L106.623 301.697Z" fill="#1A1A1A"/>
<path d="M147.753 146.533L113.665 148.656L104.17 304.465H118.21L133.284 181.442L147.753 146.533Z" fill="#3D3D3D"/>
<path d="M117.562 311.933C117.562 311.933 118.526 304.97 111.431 304.544C111.431 304.544 105.738 304.135 102.191 311.036C102.14 311.13 102.116 311.235 102.119 311.341C102.122 311.447 102.153 311.551 102.208 311.642C102.264 311.732 102.343 311.807 102.437 311.858C102.53 311.909 102.636 311.935 102.743 311.933H117.562Z" fill="#1A1A1A"/>
<path fill-rule="evenodd" clip-rule="evenodd" d="M142.099 160.303C142.156 160.329 142.181 160.397 142.155 160.454L142.051 160.406L141.947 160.359C141.974 160.302 142.041 160.276 142.099 160.303ZM141.947 160.359C141.947 160.359 141.947 160.359 142.051 160.406C142.155 160.454 142.155 160.454 142.155 160.454L142.085 160.606C142.039 160.707 141.972 160.854 141.885 161.044C141.712 161.425 141.462 161.975 141.155 162.655C140.541 164.014 139.7 165.892 138.788 167.964C136.964 172.111 134.861 177.034 133.741 180.149C133.72 180.209 133.655 180.24 133.595 180.218C133.536 180.197 133.505 180.132 133.527 180.072C134.649 176.948 136.755 172.018 138.579 167.873C139.491 165.799 140.333 163.921 140.947 162.561C141.254 161.881 141.504 161.33 141.678 160.95C141.764 160.76 141.832 160.612 141.877 160.512L141.947 160.359Z" fill="#808080"/>
<path fill-rule="evenodd" clip-rule="evenodd" d="M106.476 306.799C106.427 306.839 106.356 306.832 106.316 306.783C106.276 306.734 106.282 306.663 106.331 306.622L106.403 306.71C106.331 306.622 106.331 306.623 106.331 306.622L106.332 306.622L106.332 306.621L106.336 306.618L106.349 306.608C106.361 306.598 106.378 306.585 106.401 306.567C106.446 306.532 106.513 306.481 106.599 306.418C106.77 306.293 107.019 306.12 107.33 305.928C107.951 305.545 108.821 305.086 109.814 304.783C110.806 304.481 111.927 304.334 113.046 304.583C114.168 304.833 115.279 305.479 116.251 306.746C116.289 306.795 116.28 306.867 116.23 306.905C116.18 306.944 116.109 306.934 116.07 306.884C115.129 305.658 114.063 305.043 112.997 304.806C111.928 304.568 110.848 304.707 109.88 305.002C108.912 305.297 108.06 305.746 107.45 306.123C107.145 306.311 106.901 306.48 106.733 306.603C106.649 306.664 106.585 306.713 106.541 306.747C106.519 306.764 106.503 306.777 106.492 306.786L106.48 306.796L106.477 306.798L106.476 306.799Z" fill="#808080"/>
<path fill-rule="evenodd" clip-rule="evenodd" d="M126.842 155.164C126.901 155.186 126.931 155.252 126.909 155.311L126.802 155.271C126.909 155.311 126.909 155.311 126.909 155.311L126.909 155.311L126.908 155.312L126.907 155.317L126.9 155.335C126.893 155.351 126.884 155.374 126.872 155.404C126.847 155.464 126.81 155.552 126.76 155.664C126.66 155.887 126.507 156.205 126.296 156.589C125.875 157.356 125.222 158.385 124.293 159.43C122.435 161.522 119.472 163.685 115.064 163.957C115.001 163.961 114.947 163.913 114.943 163.85C114.939 163.788 114.987 163.734 115.05 163.73C119.383 163.462 122.293 161.338 124.122 159.279C125.037 158.249 125.681 157.235 126.096 156.479C126.304 156.101 126.454 155.788 126.552 155.57C126.601 155.461 126.637 155.376 126.661 155.318C126.673 155.289 126.681 155.267 126.687 155.252L126.694 155.236L126.695 155.232L126.695 155.231L126.695 155.231C126.695 155.231 126.695 155.231 126.695 155.231M126.842 155.164C126.783 155.142 126.718 155.172 126.695 155.231L126.842 155.164Z" fill="#808080"/>
<path fill-rule="evenodd" clip-rule="evenodd" d="M111.548 219.631C111.673 219.623 111.782 219.718 111.79 219.844C111.798 219.969 111.784 220.376 111.754 221.002C111.723 221.638 111.675 222.518 111.612 223.607C111.485 225.786 111.298 228.803 111.07 232.374C110.615 239.515 109.997 248.874 109.376 258.178C108.755 267.482 108.13 276.731 107.66 283.655C107.425 287.117 107.229 289.997 107.092 292.012C107.024 293.019 106.97 293.81 106.933 294.35L106.876 295.175C106.876 295.176 106.876 295.176 106.649 295.161C106.421 295.145 106.421 295.145 106.421 295.144L106.478 294.319C106.514 293.779 106.568 292.988 106.637 291.981C106.774 289.966 106.97 287.086 107.205 283.624C107.675 276.701 108.299 267.451 108.921 258.147C109.542 248.843 110.16 239.485 110.615 232.345C110.843 228.774 111.03 225.758 111.156 223.581C111.219 222.492 111.268 221.614 111.298 220.98C111.329 220.338 111.341 219.966 111.335 219.874C111.327 219.748 111.422 219.639 111.548 219.631ZM106.633 295.388C106.508 295.38 106.413 295.271 106.421 295.145L106.649 295.161L106.876 295.176C106.868 295.302 106.759 295.397 106.633 295.388Z" fill="#808080"/>
<path d="M123.763 138.847L113.603 145.001C113.831 139.535 113.927 133.857 113.892 127.968C113.892 122.746 113.7 117.637 113.454 112.737C112.815 107.689 108.839 91.1962 106.701 82.5189L114.418 82.693C114.418 82.693 129.018 113.608 123.763 138.847Z" fill="#E57607"/>
<path d="M143.435 117.742C143.406 117.742 143.377 117.736 143.35 117.725C143.323 117.713 143.299 117.696 143.28 117.675C143.26 117.654 143.245 117.628 143.235 117.601C143.226 117.574 143.222 117.545 143.225 117.516C143.631 104.917 142.156 92.3288 138.845 80.1607C138.836 80.1333 138.832 80.1043 138.835 80.0755C138.838 80.0466 138.846 80.0187 138.86 79.9933C138.874 79.9679 138.893 79.9457 138.916 79.9281C138.939 79.9105 138.966 79.8978 138.994 79.8909C139.022 79.8829 139.051 79.8804 139.079 79.8835C139.108 79.8866 139.136 79.8953 139.161 79.909C139.212 79.9368 139.249 79.9835 139.266 80.0389C142.581 92.2534 144.057 104.889 143.645 117.533C143.643 117.588 143.62 117.64 143.581 117.678C143.542 117.717 143.49 117.74 143.435 117.742Z" fill="#CE6700"/>
<path d="M140.404 72.7013L138.653 77.053L135.149 75.3123V79.664C135.149 80.5344 143.032 81.4047 143.032 81.4047C143.032 81.4047 144.784 77.9233 143.908 77.9233C143.032 77.9233 140.404 72.7013 140.404 72.7013Z" fill="#E6E6E6"/>
<path fill-rule="evenodd" clip-rule="evenodd" d="M152.631 82.4468H145.624V82.1046H152.631V82.4468Z" fill="#CE6700"/>
<path d="M136.025 73.9637L140.457 73.25C140.628 73.2057 140.807 73.2038 140.979 73.2445C141.15 73.2851 141.309 73.3671 141.442 73.4831C141.574 73.5992 141.676 73.7458 141.738 73.91C141.8 74.0742 141.82 74.251 141.797 74.4249L141.114 77.7148C141.055 77.9431 140.929 78.1485 140.75 78.3038C140.572 78.4592 140.351 78.5573 140.115 78.5852L138.434 78.855C138.217 78.8969 137.992 78.8784 137.785 78.8017C137.578 78.7249 137.396 78.5927 137.26 78.4198L135.184 75.5738C135.089 75.418 135.036 75.2405 135.03 75.0584C135.024 74.8763 135.065 74.6957 135.149 74.5339C135.234 74.3722 135.359 74.2348 135.512 74.1349C135.666 74.035 135.842 73.9761 136.025 73.9637Z" fill="#F7931E"/>
<path d="M137.777 77.9937C138.361 95.4005 138.945 112.784 139.529 130.145L145.659 135.367C146.824 133.339 147.998 131.311 149.163 129.274C146.173 112.024 143.195 94.7739 140.229 77.5237L137.777 77.9937Z" fill="#F7931E"/>
<path d="M136.559 77.8109L120.969 70.7263C120.915 70.7016 120.873 70.6568 120.851 70.6014C120.83 70.5461 120.832 70.4847 120.855 70.4304C120.88 70.3787 120.924 70.3388 120.978 70.3193C121.032 70.2997 121.092 70.3021 121.144 70.3259L136.297 77.2104L137.094 74.8256C137.103 74.7982 137.117 74.7728 137.137 74.751C137.156 74.7291 137.179 74.7112 137.205 74.6983C137.231 74.6854 137.259 74.6777 137.288 74.6756C137.317 74.6736 137.346 74.6772 137.374 74.6864C137.402 74.6955 137.427 74.71 137.449 74.7289C137.471 74.7479 137.489 74.7709 137.502 74.7968C137.515 74.8226 137.523 74.8508 137.525 74.8796C137.527 74.9085 137.523 74.9374 137.514 74.9649L136.559 77.8109Z" fill="#808080"/>
<path d="M155.259 147.551H113.218V152.773H155.259V147.551Z" fill="#141414"/>
<path d="M124.989 63.7367L119.384 69.2198L136.025 77.0529C136.612 75.3122 137.19 73.5716 137.777 71.8309C134.659 69.4287 128.072 66.1475 124.989 63.7367Z" fill="#E6E6E6"/>
<path d="M143.908 161.476L139.529 167.569C136.319 167.734 133.103 167.734 129.894 167.569C128.633 167.508 126.216 167.351 122.362 166.873L121.136 166.716C118.28 166.342 114.716 165.785 110.573 164.975C110.573 164.888 110.625 164.758 110.66 164.601C112.394 157.008 113.263 149.245 113.253 141.459C113.489 126.341 113.603 118.778 113.253 114.478C112.196 101.727 109.548 89.1554 105.37 77.0533C107.671 75.6666 110.006 74.216 112.377 72.7016C115.101 70.9609 117.728 69.2202 120.26 67.4796C120.534 67.1723 120.826 66.8816 121.136 66.6092C121.925 65.9094 122.809 65.3235 123.763 64.8685C124.744 68.1671 125.69 70.8391 126.391 72.7016C128.451 78.0409 130.79 83.27 133.398 88.3678C134.913 91.4488 134.957 91.414 136.025 93.5898C138.661 98.9717 141 104.492 143.032 110.126C143.301 127.249 143.592 144.366 143.908 161.476Z" fill="#333333"/>
<path d="M143.908 67.4799C144.276 71.466 144.661 76.8012 144.784 83.146C144.862 86.9842 144.784 89.8999 144.784 91.8494C144.705 96.5667 144.486 102.772 143.908 110.127L146.535 161.477L149.163 165.828C150.387 166.099 151.657 166.082 152.873 165.78C154.089 165.478 155.218 164.898 156.17 164.088C156.108 143.591 157.046 128.795 157.921 118.83C158.58 112.178 158.872 105.496 158.797 98.8122C158.701 91.2397 158.116 83.6813 157.046 76.1833L143.908 67.4799Z" fill="#333333"/>
<path fill-rule="evenodd" clip-rule="evenodd" d="M120.464 67.3671C120.526 67.3785 120.567 67.438 120.556 67.5C120.276 69.0197 119.993 70.5399 119.711 72.0585C119.486 73.2717 119.26 74.4839 119.037 75.6941L121.668 77.4376L121.649 77.5157C121.489 78.1637 121.325 78.8102 121.162 79.4551C121.035 79.9546 120.909 80.4533 120.785 80.951C124.07 86.3502 127.564 91.8475 131.268 97.4431C135.08 103.204 138.875 108.715 142.652 113.976C142.688 114.027 142.677 114.098 142.625 114.135C142.574 114.172 142.503 114.16 142.466 114.109C138.688 108.845 134.891 103.332 131.078 97.569C127.363 91.9571 123.859 86.4437 120.565 81.0289L120.54 80.9882L120.552 80.942C120.681 80.4268 120.811 79.9126 120.941 79.3978C121.097 78.7798 121.254 78.161 121.408 77.5389L118.785 75.801L118.799 75.7268C119.027 74.4912 119.257 73.2542 119.487 72.0163C119.769 70.4981 120.052 68.9786 120.331 67.4587C120.343 67.3967 120.402 67.3557 120.464 67.3671Z" fill="#808080"/>
<path fill-rule="evenodd" clip-rule="evenodd" d="M147.356 69.9907C147.411 69.9603 147.481 69.9805 147.511 70.0357L149.69 73.9959L149.674 74.0431C149.529 74.4785 149.383 74.9137 149.236 75.3487C149.095 75.7663 148.955 76.1839 148.816 76.6011L150.561 79.2019L150.555 79.245C149.229 88.7269 147.769 98.3015 146.175 107.969C145.89 109.705 145.598 111.441 145.301 113.177C145.453 114.846 145.606 116.514 145.759 118.181C145.899 119.7 146.038 121.219 146.176 122.736C146.182 122.799 146.135 122.854 146.073 122.86C146.01 122.866 145.954 122.819 145.949 122.757C145.811 121.241 145.672 119.722 145.532 118.203C145.378 116.53 145.224 114.856 145.073 113.183L145.072 113.168L145.074 113.153C145.372 111.413 145.664 109.672 145.95 107.932C147.541 98.281 148.999 88.7225 150.323 79.2566L148.564 76.6353L148.582 76.5823C148.726 76.1468 148.873 75.7114 149.02 75.2763C149.161 74.8569 149.303 74.4376 149.442 74.0185L147.311 70.1456C147.281 70.0904 147.301 70.0211 147.356 69.9907Z" fill="#808080"/>
<path fill-rule="evenodd" clip-rule="evenodd" d="M144.771 126.941C144.834 126.938 144.886 126.987 144.889 127.05L144.775 127.054L144.661 127.059C144.659 126.996 144.708 126.943 144.771 126.941ZM144.775 127.054C144.661 127.059 144.661 127.059 144.661 127.059L144.67 127.304C144.677 127.465 144.686 127.7 144.698 127.999C144.722 128.599 144.758 129.456 144.803 130.486C144.894 132.548 145.024 135.307 145.182 138.093C145.34 140.878 145.525 143.692 145.725 145.864C145.826 146.95 145.93 147.878 146.037 148.562C146.09 148.904 146.145 149.187 146.2 149.401C146.228 149.507 146.257 149.598 146.286 149.672C146.315 149.742 146.349 149.807 146.394 149.851C146.438 149.896 146.511 149.896 146.555 149.851C146.599 149.806 146.599 149.734 146.554 149.69C146.544 149.679 146.524 149.649 146.498 149.586C146.473 149.525 146.447 149.444 146.421 149.343C146.368 149.141 146.315 148.866 146.262 148.527C146.156 147.85 146.053 146.928 145.953 145.843C145.752 143.675 145.568 140.864 145.41 138.08C145.252 135.295 145.122 132.538 145.031 130.476C144.986 129.446 144.95 128.589 144.926 127.99C144.914 127.691 144.905 127.456 144.898 127.296L144.889 127.05C144.889 127.05 144.889 127.05 144.775 127.054Z" fill="#808080"/>
<path d="M157.922 93.3028C157.864 93.3006 157.81 93.277 157.769 93.2367C157.729 93.1963 157.705 93.1422 157.703 93.0852C157.575 88.6399 157.062 84.2138 156.17 79.856C156.164 79.828 156.164 79.7991 156.169 79.7711C156.175 79.743 156.186 79.7163 156.202 79.6925C156.218 79.6686 156.238 79.6481 156.262 79.6321C156.286 79.6161 156.312 79.605 156.341 79.5992C156.369 79.5935 156.398 79.5934 156.426 79.5988C156.454 79.6043 156.481 79.6152 156.505 79.6309C156.529 79.6467 156.55 79.667 156.566 79.6907C156.582 79.7144 156.593 79.741 156.599 79.769C157.506 84.1546 158.031 88.6099 158.167 93.0852C158.167 93.1161 158.161 93.1467 158.148 93.175C158.135 93.2032 158.117 93.2285 158.094 93.2491C158.07 93.2697 158.043 93.2851 158.013 93.2944C157.984 93.3036 157.952 93.3065 157.922 93.3028Z" fill="#808080"/>
<path d="M122.476 166.837H122.327L121.136 166.715C117.594 166.205 114.085 165.493 110.625 164.583C112.369 156.997 113.251 149.24 113.253 141.458C113.489 126.34 113.603 118.777 113.253 114.478C112.196 101.726 109.548 89.1549 105.37 77.0529C111.375 86.2368 116.09 96.1926 119.384 106.644C125.402 126.147 126.464 146.827 122.476 166.837Z" fill="#282828"/>
<path d="M105.449 76.9406L105.922 76.5142L106.15 76.784C107.176 76.6148 108.227 76.6652 109.233 76.9319C113.997 78.2548 115.872 84.4952 116.38 86.2011C118.018 91.6668 116.844 95.7748 113.446 109.578C111.922 115.749 110.757 120.649 110.109 123.356C109.951 131.102 109.557 139.231 108.882 147.726C108.404 153.708 107.82 159.487 107.131 165.063L99.248 164.671C96.1154 150.497 95.2025 135.927 96.5416 121.476C97.3211 113.495 100.036 101.232 105.449 76.9406Z" fill="#333333"/>
<path fill-rule="evenodd" clip-rule="evenodd" d="M116.25 86.0832C116.31 86.0646 116.374 86.0984 116.392 86.1586C116.832 87.5836 117.127 89.0491 117.273 90.5328L117.273 90.5329C117.415 91.9874 117.415 93.4522 117.273 94.9067L117.272 94.9154L117.27 94.9238C116.382 98.4049 115.506 101.886 114.642 105.367L114.642 105.367C113.404 110.328 112.187 115.26 110.99 120.163C110.975 120.224 110.913 120.261 110.852 120.246C110.791 120.231 110.754 120.17 110.768 120.108C111.966 115.205 113.183 110.273 114.421 105.312C115.284 101.833 116.16 98.3546 117.046 94.8759C117.186 93.4389 117.186 91.9919 117.046 90.555C116.902 89.0866 116.61 87.6363 116.174 86.2259C116.156 86.1657 116.189 86.1018 116.25 86.0832Z" fill="#999999"/>
<path fill-rule="evenodd" clip-rule="evenodd" d="M96.6228 121.293C96.6855 121.299 96.7313 121.355 96.7251 121.418L96.6116 121.406L96.4981 121.395C96.5043 121.332 96.5601 121.287 96.6228 121.293ZM96.6116 121.406C96.4981 121.395 96.4981 121.395 96.4981 121.395L96.4967 121.409L96.4929 121.449C96.4894 121.484 96.4844 121.537 96.478 121.606C96.4652 121.745 96.4467 121.95 96.424 122.215C96.3786 122.746 96.3165 123.518 96.2495 124.486C96.1156 126.421 95.9622 129.138 95.8844 132.263C95.7289 138.512 95.8754 146.403 97.0862 152.951C97.0977 153.013 97.1572 153.054 97.2191 153.042C97.2811 153.031 97.322 152.971 97.3105 152.909C96.1041 146.385 95.9571 138.513 96.1125 132.269C96.1902 129.147 96.3434 126.434 96.4771 124.501C96.544 123.535 96.606 122.764 96.6513 122.234C96.6739 121.97 96.6924 121.765 96.7052 121.627C96.7116 121.558 96.7165 121.506 96.7199 121.471L96.7238 121.431L96.7251 121.418C96.7251 121.417 96.7251 121.418 96.6116 121.406Z" fill="#999999"/>
<path d="M140.369 63.1283L143.873 67.48L142.121 77.0538L138.618 71.8317L140.369 63.1283Z" fill="#E6E6E6"/>
<path d="M141.876 76.9401C141.84 76.9398 141.804 76.9309 141.772 76.9143C141.74 76.8976 141.713 76.8737 141.692 76.8444L139.283 73.2499C139.267 73.2259 139.256 73.199 139.25 73.1707C139.244 73.1423 139.244 73.1131 139.25 73.0848C139.255 73.0564 139.267 73.0294 139.283 73.0055C139.299 72.9815 139.32 72.9611 139.345 72.9452C139.393 72.9151 139.45 72.9046 139.506 72.916C139.561 72.9273 139.61 72.9597 139.642 73.0062L142.06 76.6007C142.091 76.6496 142.101 76.7085 142.09 76.7651C142.079 76.8217 142.046 76.8719 141.998 76.9053C141.962 76.9287 141.919 76.9408 141.876 76.9401Z" fill="#808080"/>
<path d="M142.568 74.8429C142.512 74.8304 142.463 74.7975 142.431 74.7507C142.398 74.704 142.385 74.6468 142.393 74.5905L143.47 68.6896C143.474 68.6611 143.484 68.6338 143.499 68.6093C143.515 68.5848 143.535 68.5638 143.559 68.5474C143.582 68.5311 143.609 68.5198 143.638 68.5143C143.666 68.5088 143.696 68.5093 143.724 68.5155C143.753 68.5196 143.78 68.5296 143.805 68.5448C143.829 68.5599 143.851 68.58 143.867 68.6037C143.883 68.6274 143.895 68.6542 143.9 68.6825C143.906 68.7108 143.905 68.7399 143.899 68.7679L142.822 74.6689C142.818 74.6974 142.808 74.7247 142.792 74.7492C142.777 74.7736 142.757 74.7947 142.733 74.8111C142.709 74.8274 142.682 74.8387 142.654 74.8442C142.625 74.8496 142.596 74.8492 142.568 74.8429Z" fill="#808080"/>
<path d="M128.813 40.7058L122.301 40.4777L122.506 41.408L123.016 43.6731L127.81 43.9125L128.813 40.7058Z" fill="#C4C4C4"/>
<defs>
<linearGradient id="paint0_linear" x1="289.513" y1="228.142" x2="289.513" y2="238.627" gradientUnits="userSpaceOnUse">
<stop stop-color="#40A800"/>
<stop offset="1" stop-color="#178A00"/>
</linearGradient>
<linearGradient id="paint1_linear" x1="289.513" y1="263.271" x2="289.513" y2="273.757" gradientUnits="userSpaceOnUse">
<stop stop-color="#40A800"/>
<stop offset="1" stop-color="#178A00"/>
</linearGradient>
<linearGradient id="paint2_linear" x1="289.513" y1="161.646" x2="289.513" y2="172.131" gradientUnits="userSpaceOnUse">
<stop stop-color="#40A800"/>
<stop offset="1" stop-color="#178A00"/>
</linearGradient>
<linearGradient id="paint3_linear" x1="289.513" y1="194.894" x2="289.513" y2="205.379" gradientUnits="userSpaceOnUse">
<stop stop-color="#40A800"/>
<stop offset="1" stop-color="#178A00"/>
</linearGradient>
</defs>
</svg>
