<svg width="80" height="52" fill="none" xmlns="http://www.w3.org/2000/svg"><path fill-rule="evenodd" clip-rule="evenodd" d="M1.672 49.375c.61.369 1.645.783 2.628.783 1.416 0 2.093-.716 2.093-1.666 0-.973-.569-1.475-2.006-2.034-1.972-.726-2.89-1.81-2.89-3.141 0-1.799 1.44-3.277 3.762-3.277 1.1 0 2.072.302 2.65.692l-.47 1.476a4.1 4.1 0 00-2.225-.672c-1.179 0-1.81.693-1.81 1.521 0 .928.631 1.342 2.05 1.91 1.865.717 2.857 1.69 2.857 3.344 0 1.98-1.503 3.365-4.044 3.365-1.188 0-2.288-.324-3.064-.783l.469-1.518zm15.816 1.669c-.51.257-1.669.647-3.127.647-3.28 0-5.418-2.28-5.418-5.702 0-3.434 2.288-5.949 5.854-5.949 1.167 0 2.201.302 2.748.605l-.448 1.541c-.469-.257-1.208-.526-2.288-.526-2.496 0-3.849 1.91-3.849 4.227 0 2.581 1.624 4.171 3.783 4.171 1.121 0 1.864-.278 2.43-.526l.315 1.512zm1.188-15.992h1.985v16.382h-1.985V35.052zm5.43 10.825c0 2.449 1.353 4.293 3.281 4.293 1.885 0 3.302-1.823 3.302-4.338 0-1.89-.927-4.272-3.26-4.272-2.321 0-3.323 2.213-3.323 4.317zm8.61-.124c0 4.127-2.812 5.926-5.42 5.926-2.922 0-5.22-2.213-5.22-5.747 0-3.713 2.41-5.904 5.395-5.904 3.13.012 5.244 2.337 5.244 5.725zm10.475 2.619c0 1.173.021 2.191.087 3.062h-1.752l-.109-1.823h-.042a4.062 4.062 0 01-3.596 2.08c-1.711 0-3.762-.995-3.762-4.885v-6.53h1.985v6.16c0 2.126.655 3.58 2.43 3.58 1.328 0 2.245-.949 2.603-1.868a2.94 2.94 0 00.175-1.04v-6.844h1.984v8.108h-.003zm9.583-3.559c0-.257-.021-.604-.087-.849-.295-1.276-1.374-2.325-2.857-2.325-2.047 0-3.26 1.844-3.26 4.293 0 2.258 1.101 4.126 3.215 4.126 1.33 0 2.541-.928 2.899-2.427a3.7 3.7 0 00.087-.87v-1.948h.003zm1.96-9.76v13.494c0 .995.046 2.125.088 2.884h-1.756l-.088-1.935h-.066c-.589 1.243-1.885 2.192-3.662 2.192-2.628 0-4.676-2.28-4.676-5.68-.02-3.713 2.246-5.97 4.883-5.97 1.69 0 2.79.803 3.281 1.686h.042v-6.675h1.954v.003zm1.483 15.184c0-.829.565-1.455 1.35-1.455.785 0 1.33.605 1.33 1.455 0 .828-.545 1.454-1.375 1.454-.758 0-1.305-.626-1.305-1.454z" fill="#333"/><path fill-rule="evenodd" clip-rule="evenodd" d="M60.22 43.752c0-1.318-.022-2.448-.088-3.488h1.732l.087 2.212h.066c.49-1.499 1.711-2.448 3.04-2.448.208 0 .361.021.545.045v1.91c-.208-.045-.403-.045-.677-.045-1.395 0-2.387 1.061-2.658 2.582a6.27 6.27 0 00-.066.95v5.949h-1.985v-7.667h.003zm15.347 4.62c0 1.173.02 2.191.087 3.062h-1.756l-.109-1.823h-.042a4.062 4.062 0 01-3.596 2.08c-1.71 0-3.762-.995-3.762-4.885v-6.53h1.985v6.16c0 2.126.656 3.58 2.43 3.58 1.329 0 2.246-.949 2.603-1.868.109-.278.187-.647.187-1.04v-6.844h1.985v8.108h-.012z" fill="#808285"/><path fill-rule="evenodd" clip-rule="evenodd" d="M.313 34.438A11.938 11.938 0 010 31.715c0-1.67.313-2.881.313-2.881a12.285 12.285 0 01.625-2.437c.096-.257.193-.502.313-.744a6.96 6.96 0 01.313-.61 7.29 7.29 0 01.312-.523c.097-.157.205-.312.313-.457a4.87 4.87 0 01.313-.41 7.9 7.9 0 01.312-.367 6.38 6.38 0 01.313-.332c.096-.1.205-.2.313-.3.096-.1.204-.19.313-.277.096-.088.204-.167.312-.258.097-.078.205-.157.313-.232.108-.079.205-.145.313-.212.108-.066.204-.133.312-.2a6.69 6.69 0 01.313-.178c.108-.054.205-.112.313-.166.108-.054.204-.1.313-.157.108-.046.204-.1.312-.145l.313-.133c.108-.046.205-.079.313-.121.108-.034.204-.079.313-.112.108-.033.204-.067.312-.1.108-.033.205-.054.313-.087.108-.034.213-.055.313-.08.108-.02.213-.045.312-.066.118-.02.214-.045.313-.054.13-.021.226-.033.313-.045.108-.012.162-.022.162-.022s.021-.456.139-1.224c.063-.411.162-.922.312-1.502.087-.345.184-.723.313-1.125.087-.3.192-.61.313-.934.096-.266.192-.544.312-.822.097-.245.193-.49.313-.735a8.35 8.35 0 01.313-.668c.096-.2.204-.411.313-.61.096-.191.204-.378.312-.578.096-.178.205-.357.313-.535.096-.166.204-.333.313-.502a9.75 9.75 0 01.312-.478c.097-.157.205-.299.313-.456.096-.145.205-.29.313-.432a9.31 9.31 0 01.313-.411c.096-.133.204-.257.312-.39.096-.121.205-.245.313-.378.096-.121.205-.245.313-.357.096-.112.204-.233.312-.345.097-.112.205-.223.313-.332.096-.112.205-.212.313-.324.096-.1.204-.2.313-.311.096-.1.204-.2.312-.3.097-.1.205-.19.313-.29.096-.087.204-.178.313-.278.096-.087.204-.178.313-.266.096-.087.204-.166.312-.257.096-.078.205-.166.313-.244.096-.08.204-.155.313-.245a5.28 5.28 0 01.312-.233c.097-.079.205-.154.313-.224.096-.078.204-.145.313-.224.096-.066.204-.145.313-.211.096-.067.204-.133.312-.2.096-.066.205-.133.313-.2.096-.066.204-.132.313-.199.096-.066.204-.12.312-.19.097-.067.205-.121.313-.179.096-.054.204-.12.313-.178.096-.054.204-.112.313-.166a7.43 7.43 0 01.312-.166 3.05 3.05 0 01.313-.158c.096-.054.204-.1.313-.157.033-.012.063-.033.096-.045.075-.033.138-.067.213-.1.109-.045.205-.1.313-.145l.313-.133c.108-.045.204-.088.313-.133.108-.045.204-.088.312-.121.108-.045.205-.088.313-.12a3.22 3.22 0 01.313-.113c.108-.033.204-.078.312-.112.109-.033.205-.066.313-.1.108-.033.205-.066.313-.1.108-.032.204-.054.313-.087.108-.033.204-.054.312-.087.108-.022.205-.055.313-.079.108-.021.204-.054.313-.079.108-.02.204-.045.312-.066.109-.021.205-.045.313-.067.108-.02.205-.045.313-.054.108-.021.204-.033.313-.054.108-.013.204-.034.312-.046l.313-.033.313-.033c.108-.012.204-.021.313-.021.108-.013.204-.022.312-.022.108-.012.205-.012.313-.02.108 0 .204-.013.313-.013.108 0 .204-.012.312-.012h.626c.108 0 .204.012.313.012.108 0 .204.012.312.012.108 0 .205.012.313.021.108.012.204.012.313.022.108.012.204.02.312.02.109.013.205.022.313.034l.313.033c.108.012.204.033.313.046.108.012.204.033.312.045.108.021.205.033.313.054.108.021.204.046.313.055.108.02.204.045.312.066.109.021.205.046.313.067.108.02.205.045.313.078.108.021.204.055.313.079.108.021.204.054.312.079.108.033.205.054.313.087.108.033.204.055.313.088.108.033.204.066.312.1.109.033.205.066.313.1.108.033.205.066.313.111.108.033.204.079.313.112.108.033.204.079.312.121.108.045.205.079.313.12.108.046.205.08.313.122l.312.133c.109.045.205.088.313.133.108.045.205.088.313.145.108.045.204.1.313.145.108.054.204.1.312.157.108.055.205.1.313.157.108.055.205.112.313.167.108.054.204.112.313.166.108.054.204.112.312.178.108.055.205.121.313.179.108.054.204.12.313.178.108.067.204.121.312.19.109.067.205.134.313.191.108.066.204.133.313.2.108.066.204.133.313.211.108.067.204.145.312.212l.313.223c.108.079.204.158.313.224.108.079.204.157.312.233.109.078.205.166.313.233.108.087.217.166.313.245.108.087.216.178.313.256.117.1.216.19.312.267.13.111.238.211.313.278.087.078.117.12.117.12.066-.02.117-.045.184-.066.108-.033.204-.079.312-.112.109-.033.205-.078.313-.112.108-.033.205-.066.313-.1.108-.033.204-.066.313-.1.108-.032.204-.066.312-.099.108-.033.205-.066.313-.088.108-.033.204-.054.313-.087.108-.034.204-.055.312-.088.109-.021.205-.054.313-.079.108-.02.205-.054.313-.078.108-.021.204-.045.313-.067.108-.02.204-.045.312-.066.108-.021.205-.033.313-.055.108-.02.204-.033.313-.054a3.71 3.71 0 01.312-.045c.109-.012.205-.034.313-.046.108-.012.205-.02.313-.033l.313-.033c.108-.012.204-.012.312-.021.108-.012.205-.012.313-.021.108 0 .205-.013.313-.013.108 0 .204 0 .312-.012h.313c.108 0 .205 0 .313.012.108 0 .204.013.313.013.108.012.204.012.312.02.108.013.205.022.313.022l.313.033c.108.012.204.033.312.045.109.013.205.034.313.046.108.02.205.033.313.054.108.021.204.046.313.067.108.02.204.045.312.078.109.021.205.055.313.079.108.033.205.054.313.088.108.033.204.066.313.1.108.033.204.066.312.111.108.033.205.079.313.121.108.045.204.088.313.133a3.6 3.6 0 01.312.145c.109.046.205.1.313.145.108.055.205.1.313.154.108.055.204.112.313.167.108.054.204.12.312.19.108.067.205.133.313.2.108.066.204.145.313.211.108.079.204.145.312.224.109.079.205.157.313.233.108.087.205.166.313.257.108.087.204.178.313.266l.312.29c.108.1.205.2.313.311.108.112.204.224.313.324.108.112.204.233.312.344.109.121.205.245.313.366.108.133.205.266.313.4.108.144.213.29.313.422.108.158.216.312.312.457.108.166.214.333.313.502.108.19.216.378.313.544.117.224.213.423.312.61.142.3.247.545.313.702.054.133.075.212.075.212s.076.02.226.078c.087.033.183.067.313.112.096.033.192.079.312.112.097.033.193.079.313.12.096.046.205.08.313.122.096.045.204.087.312.133.097.045.205.087.313.145.096.045.205.087.313.145.096.045.204.1.313.157.096.055.204.1.312.154a8.1 8.1 0 00.313.167c.096.054.204.111.313.166.096.054.204.112.312.178.097.055.205.121.313.179.096.054.205.12.313.19.096.067.204.12.313.19.096.067.204.133.312.2.097.067.205.133.313.212.096.066.205.145.313.211.108.079.204.145.313.224.108.079.204.154.312.233.108.078.205.157.313.245.108.078.204.166.313.244l.312.257c.109.088.205.179.313.266.108.088.204.19.313.279.108.1.204.199.313.299.108.1.204.2.312.311l.313.324c.108.111.204.223.313.344.108.121.204.233.312.357.109.12.205.257.313.378.108.133.205.266.313.399.108.145.204.29.313.432.108.157.204.312.312.469.109.166.205.332.313.502.108.178.204.365.313.556.108.2.204.399.312.61.109.224.205.457.313.69.108.257.214.523.313.8a10.098 10.098 0 01.3.977c.118.4.214.79.313 1.167.117.511.226 1 .313 1.457.463 2.579.355 4.55 0 6.007-.087.366-.192.71-.313 1.013a8.49 8.49 0 01-.313.722 5 5 0 01-.312.556c-.108.167-.205.324-.313.457a3.778 3.778 0 01-.313.378 4.64 4.64 0 01-.625.59c-.138.111-.238.166-.238.166.076-.224.15-.478.238-.79.117-.432.225-.955.313-1.568a17.1 17.1 0 000-4.592 18.561 18.561 0 00-.313-1.769 19.412 19.412 0 00-.313-1.233c-.096-.333-.192-.668-.313-1a12.51 12.51 0 00-.312-.869c-.096-.256-.193-.522-.313-.78-.087-.199-.171-.41-.258-.61-.013-.033-.034-.067-.043-.1-.096-.211-.192-.423-.312-.623-.097-.19-.205-.365-.313-.544-.096-.166-.204-.323-.313-.49a8.266 8.266 0 00-.313-.432c-.096-.133-.204-.266-.312-.399a8.462 8.462 0 00-.313-.366 4.817 4.817 0 00-.313-.344 3.946 3.946 0 00-.312-.324 7.54 7.54 0 00-.313-.311 3.92 3.92 0 00-.313-.29c-.096-.088-.204-.19-.313-.278a7.226 7.226 0 00-.312-.266c-.096-.088-.205-.167-.313-.257a7.047 7.047 0 00-.313-.245c-.096-.079-.204-.154-.312-.233a2.932 2.932 0 00-.313-.224 4.77 4.77 0 00-.313-.211c-.108-.067-.204-.145-.313-.212-.108-.066-.204-.133-.312-.2-.109-.066-.205-.132-.313-.19-.108-.066-.204-.12-.313-.19a5.563 5.563 0 00-.312-.179c-.109-.054-.205-.12-.313-.178-.108-.054-.205-.112-.313-.166-.108-.055-.204-.112-.313-.167-.108-.054-.204-.111-.312-.154-.108-.054-.205-.1-.313-.157a4.772 4.772 0 00-.313-.145c-.108-.045-.204-.1-.312-.145l-.313-.133-.313-.133c-.108-.046-.204-.088-.313-.133-.108-.045-.204-.088-.312-.121-.109-.046-.205-.079-.313-.121a3.23 3.23 0 00-.313-.112c-.108-.045-.213-.078-.313-.112-.108-.045-.213-.078-.312-.112a2.566 2.566 0 00-.313-.1 1.971 1.971 0 01-.237-.078l-.064-.133c-.096-.212-.204-.411-.312-.61-.096-.2-.205-.39-.313-.578a8.567 8.567 0 00-.313-.535c-.096-.166-.204-.333-.313-.502-.096-.157-.204-.311-.312-.469a8.266 8.266 0 00-.313-.432 4.87 4.87 0 00-.313-.41 4.732 4.732 0 00-.312-.379 5.02 5.02 0 00-.313-.357 6.35 6.35 0 00-.313-.332 3.533 3.533 0 00-.313-.311c-.096-.1-.204-.2-.312-.29-.096-.088-.205-.191-.313-.279-.096-.087-.204-.166-.313-.257-.108-.078-.204-.154-.312-.232-.109-.08-.205-.146-.313-.224-.108-.067-.205-.133-.313-.2-.108-.066-.204-.133-.313-.19-.108-.055-.204-.121-.312-.178-.108-.055-.205-.112-.313-.158a4.791 4.791 0 00-.313-.145l-.312-.133c-.109-.045-.205-.078-.313-.12-.108-.034-.205-.08-.313-.1-.108-.034-.204-.067-.313-.088a3.96 3.96 0 00-.312-.079c-.108-.02-.205-.045-.313-.066-.108-.021-.204-.046-.313-.055a3.715 3.715 0 00-.312-.045l-.313-.033a2.718 2.718 0 00-.313-.021c-.108-.013-.204-.013-.313-.013-.108 0-.204 0-.312-.012h-.313c-.108 0-.204.012-.313.012-.108.013-.204.013-.312.022-.109.012-.205.02-.313.033-.108.012-.205.021-.313.045-.108.012-.204.033-.313.046-.108.02-.204.033-.312.054-.109.021-.205.045-.313.066a2.96 2.96 0 00-.313.08c-.108.02-.204.053-.313.078-.108.033-.204.054-.312.087-.108.034-.205.067-.313.1a3.22 3.22 0 00-.313.112c-.108.033-.204.079-.312.112-.109.045-.205.078-.313.12l-.313.134-.313.133c-.108.045-.204.1-.312.145-.108.054-.205.1-.313.157-.108.054-.204.112-.313.166-.108.055-.213.121-.312.179-.109.066-.217.12-.313.178a4.038 4.038 0 00-.313.2 3.827 3.827 0 00-.313.211 2.584 2.584 0 01-.096.067c-.066-.088-.141-.179-.216-.278-.097-.121-.193-.245-.313-.378-.096-.112-.192-.233-.313-.357-.096-.112-.204-.224-.312-.345-.097-.111-.205-.211-.313-.323-.096-.1-.205-.2-.313-.311a7.53 7.53 0 00-.313-.3c-.096-.087-.204-.19-.312-.29-.097-.088-.205-.178-.313-.278a7.225 7.225 0 00-.313-.266c-.096-.088-.204-.166-.312-.257a7.114 7.114 0 00-.313-.245c-.096-.079-.205-.154-.313-.233a2.923 2.923 0 00-.313-.223c-.096-.079-.204-.146-.312-.224-.096-.067-.205-.145-.313-.212-.096-.066-.205-.133-.313-.2a3.198 3.198 0 00-.313-.19c-.096-.066-.204-.12-.312-.19-.096-.055-.205-.121-.313-.179a7.419 7.419 0 00-.313-.166 7.418 7.418 0 00-.312-.166c-.096-.054-.205-.1-.313-.157a2.987 2.987 0 00-.313-.145c-.096-.046-.204-.1-.313-.145-.096-.046-.204-.088-.312-.133-.096-.046-.205-.088-.313-.133-.096-.046-.204-.08-.313-.121-.096-.034-.204-.079-.312-.112-.097-.034-.205-.067-.313-.112a9.784 9.784 0 00-.313-.1c-.096-.033-.204-.066-.313-.1-.096-.033-.204-.054-.312-.087-.096-.034-.205-.055-.313-.079-.096-.021-.204-.054-.313-.078a9.7 9.7 0 00-.312-.067c-.097-.021-.205-.045-.313-.067-.096-.02-.205-.033-.313-.054-.096-.021-.204-.033-.313-.054-.096-.012-.204-.034-.312-.046-.096-.012-.205-.02-.313-.045-.096-.012-.204-.021-.313-.033a2.543 2.543 0 00-.312-.021c-.097-.013-.205-.013-.313-.022-.096-.012-.205-.012-.313-.012-.096 0-.204-.012-.313-.012h-.625c-.096 0-.204.012-.313.012-.096 0-.204.012-.312.012-.097.012-.205.012-.313.022a2.546 2.546 0 01-.313.02c-.108.013-.204.022-.313.034-.096.012-.204.021-.312.045-.097.012-.205.034-.313.046-.108.012-.204.033-.313.045-.096.021-.204.033-.312.054a2.29 2.29 0 01-.313.055c-.096.021-.205.045-.313.066a3.935 3.935 0 00-.313.079c-.108.021-.204.054-.312.079a4.181 4.181 0 00-.313.087c-.096.033-.204.055-.313.088-.108.033-.204.066-.313.1a9.759 9.759 0 01-.312.1 3.229 3.229 0 00-.313.111c-.096.034-.204.079-.313.112-.096.033-.204.079-.312.121-.109.045-.205.079-.313.12-.096.046-.204.089-.313.134-.096.045-.183.079-.28.12-.011 0-.02.013-.032.013-.109.045-.205.1-.313.145-.108.045-.205.1-.313.145-.108.055-.204.1-.313.157-.108.055-.204.112-.312.167-.109.054-.205.111-.313.166a4.115 4.115 0 00-.313.178c-.108.055-.204.121-.313.179-.108.066-.204.12-.312.19-.108.067-.205.133-.313.2a4.774 4.774 0 00-.313.211c-.108.067-.204.145-.312.212-.109.078-.205.145-.313.224-.108.078-.205.157-.313.232-.108.079-.204.157-.313.245a23.33 23.33 0 00-.312.257c-.108.088-.205.178-.313.266-.108.088-.204.19-.313.278l-.312.29c-.109.1-.205.2-.313.3-.108.1-.205.211-.313.311-.108.112-.204.224-.313.324-.108.111-.204.232-.312.344-.108.121-.205.245-.313.357-.108.12-.204.257-.313.378-.108.133-.204.266-.312.399-.109.133-.205.278-.313.411-.108.145-.205.29-.313.432-.108.157-.204.312-.313.469-.108.166-.204.332-.312.49-.109.178-.205.344-.313.523-.108.19-.205.377-.313.556-.108.2-.204.399-.313.601-.108.212-.204.433-.312.644a24.03 24.03 0 00-.626 1.47l-.312.846c-.118.332-.214.656-.313.967-.117.4-.214.78-.313 1.134a28.43 28.43 0 00-.313 1.436c-.162.88-.192 1.403-.192 1.403a.344.344 0 01-.108.02c-.108.022-.205.046-.313.067a2.973 2.973 0 00-.313.079c-.108.021-.204.054-.312.078-.109.034-.205.055-.313.088-.108.033-.205.054-.313.088-.108.033-.204.066-.313.1-.108.033-.204.066-.312.1-.108.032-.205.078-.313.111-.108.046-.204.079-.313.121-.108.045-.204.079-.312.121-.109.045-.205.088-.313.133-.108.045-.205.1-.313.145-.108.054-.204.1-.313.157-.108.055-.204.112-.312.167-.108.054-.205.12-.313.178-.108.066-.204.12-.313.19-.108.067-.204.133-.312.2-.109.066-.205.145-.313.224-.108.078-.205.157-.313.232-.108.079-.204.167-.313.257-.108.088-.204.179-.312.278-.109.1-.205.2-.313.3l-.313.323c-.108.112-.204.233-.312.357-.109.12-.205.257-.313.39l-.313.423c-.108.157-.213.324-.313.478-.108.178-.213.365-.312.544a20.63 20.63 0 00-.313.635c-.108.257-.214.51-.313.768a12.503 12.503 0 00-.625 2.5 15.279 15.279 0 000 4.26c.054.377.096.589.096.589-.033-.055-.063-.112-.096-.167-.108-.187-.214-.39-.313-.577-.117-.245-.213-.49-.313-.735a10.802 10.802 0 01-.297-1.043z" fill="url(#paint0_linear)"/><defs><linearGradient id="paint0_linear" x1="0" y1="19.198" x2="79.743" y2="19.198" gradientUnits="userSpaceOnUse"><stop stop-color="#4DB849"/><stop offset=".531" stop-color="#FFE500"/><stop offset="1" stop-color="#F6841F"/></linearGradient></defs></svg>